<svg width="254" height="112" viewBox="0 0 254 112" fill="none" xmlns="http://www.w3.org/2000/svg">
<g clip-path="url(#clip0_475_280)">
<path d="M159.98 38.56H156.82L149.83 47.15V38.56H147.22V55.65H149.83V50.68L152.7 47.22L157.51 55.65H160.56L154.44 45.26L159.98 38.56Z" fill="black"/>
<path d="M165.63 38.56H163.02V55.65H165.63V38.56Z" fill="black"/>
<path d="M181.069 46.5C181.699 45.71 182.009 44.74 182.009 43.56C182.009 42.59 181.789 41.73 181.359 40.97C180.929 40.22 180.299 39.62 179.499 39.2C178.689 38.77 177.759 38.56 176.709 38.56H170.069V55.65H172.679V48.47H175.909L179.509 55.65H182.529L178.599 48.1C179.609 47.82 180.429 47.28 181.059 46.5H181.069ZM172.689 46.24V40.9H176.519C177.399 40.9 178.109 41.14 178.639 41.62C179.169 42.1 179.429 42.76 179.429 43.59C179.429 44.42 179.159 45.06 178.629 45.53C178.099 46 177.399 46.24 176.519 46.24H172.689Z" fill="black"/>
<path d="M188.4 38.56H185.79V55.65H188.4V38.56Z" fill="black"/>
<path d="M211.369 38.56H208.199L201.219 47.15V38.56H198.609V55.65H201.219V50.68L204.089 47.22L208.899 55.65H211.939L205.829 45.26L211.369 38.56Z" fill="black"/>
<path d="M218.65 38.56L212.39 55.65H215.15L216.32 52.22H223.06L224.23 55.65H226.99L220.73 38.56H218.65ZM217.09 50.01L219.75 42.43L222.34 50.01H217.09Z" fill="black"/>
<path d="M228.68 40.9H236.24L228.34 53.42V55.65H239.28V53.32H231.34L239.28 40.68V38.56H228.68V40.9Z" fill="black"/>
<path d="M242.649 55.65H253.579V53.32H245.259V48.19H252.359V45.88H245.259V40.9H253.579V38.56H242.649V55.65Z" fill="black"/>
<path d="M156.62 75.97C156.12 75.77 155.49 75.61 154.7 75.5L152.75 75.21C152.37 75.16 152 75.06 151.66 74.91C151.32 74.76 151.04 74.6 150.83 74.42C150.4 74.04 150.19 73.51 150.19 72.83C150.19 72.32 150.31 71.86 150.56 71.46C150.81 71.06 151.16 70.74 151.63 70.52C152.1 70.29 152.66 70.18 153.31 70.18C153.82 70.18 154.28 70.22 154.7 70.3C155.12 70.38 155.53 70.52 155.92 70.71C156.31 70.9 156.68 71.17 157.02 71.5L158.68 69.86C157.96 69.19 157.18 68.69 156.35 68.38C155.51 68.07 154.52 67.92 153.37 67.92C152.22 67.92 151.19 68.13 150.33 68.55C149.47 68.97 148.81 69.56 148.35 70.31C147.89 71.07 147.66 71.94 147.66 72.93C147.66 74.33 148.07 75.41 148.9 76.19C149.67 76.91 150.76 77.37 152.15 77.56L154.17 77.84C154.67 77.91 155.05 78 155.32 78.1C155.59 78.2 155.83 78.36 156.03 78.56C156.48 78.97 156.71 79.55 156.71 80.33C156.71 81.16 156.4 81.8 155.77 82.26C155.14 82.72 154.28 82.95 153.18 82.95C152.59 82.95 152.04 82.9 151.53 82.8C151.02 82.7 150.53 82.52 150.07 82.27C149.61 82.02 149.19 81.7 148.81 81.31L147.08 83.02C147.88 83.83 148.77 84.41 149.73 84.76C150.69 85.11 151.83 85.28 153.13 85.28C154.03 85.28 154.85 85.17 155.59 84.95C156.33 84.73 156.98 84.4 157.54 83.95C158.1 83.5 158.53 82.97 158.82 82.34C159.11 81.71 159.27 81.02 159.27 80.26C159.27 78.74 158.81 77.57 157.88 76.76C157.53 76.43 157.1 76.17 156.61 75.97H156.62Z" fill="black"/>
<path d="M161.24 70.39H165.95V85.14H168.54V70.39H173.24V68.05H161.24V70.39Z" fill="black"/>
<path d="M185.61 79.25C185.61 80.01 185.46 80.66 185.17 81.22C184.88 81.77 184.46 82.2 183.93 82.5C183.39 82.8 182.77 82.95 182.06 82.95C181.35 82.95 180.73 82.8 180.2 82.5C179.67 82.2 179.26 81.77 178.97 81.21C178.68 80.65 178.54 80 178.54 79.25V68.06H175.95V79.38C175.95 80.54 176.22 81.56 176.75 82.46C177.28 83.36 178.01 84.05 178.94 84.55C179.87 85.05 180.91 85.29 182.07 85.29C183.23 85.29 184.28 85.04 185.22 84.55C186.16 84.06 186.89 83.36 187.42 82.46C187.95 81.56 188.22 80.53 188.22 79.38V68.06H185.63V79.25H185.61Z" fill="black"/>
<path d="M203.95 71.37C203.7 70.74 203.31 70.17 202.81 69.66C201.74 68.59 200.26 68.05 198.39 68.05H192.38V85.14H198.39C200.27 85.14 201.74 84.6 202.81 83.53C203.32 83.02 203.7 82.44 203.95 81.77C204.2 81.11 204.37 80.43 204.44 79.74C204.51 79.05 204.55 78.25 204.55 77.33V75.61C204.55 74.73 204.51 73.96 204.44 73.3C204.37 72.64 204.21 72 203.95 71.37ZM201.8 79.85C201.7 80.61 201.44 81.22 201.04 81.66C200.34 82.42 199.38 82.81 198.13 82.81H194.99V70.39H198.13C199.36 70.39 200.33 70.78 201.04 71.55C201.31 71.85 201.52 72.24 201.66 72.71C201.8 73.18 201.88 73.68 201.91 74.21C201.94 74.75 201.96 75.5 201.96 76.49C201.96 77.97 201.91 79.09 201.81 79.85H201.8Z" fill="black"/>
<path d="M210.97 68.05H208.36V85.14H210.97V68.05Z" fill="black"/>
<path d="M226.6 71.48C226.37 70.86 225.99 70.28 225.47 69.73C224.24 68.52 222.74 67.91 220.96 67.91C219.18 67.91 217.68 68.52 216.47 69.73C216.06 70.15 215.74 70.58 215.51 71.02C215.28 71.46 215.13 71.94 215.03 72.44C214.93 72.94 214.87 73.51 214.84 74.12C214.81 74.73 214.8 75.55 214.8 76.59C214.8 77.94 214.83 78.98 214.88 79.7C214.93 80.42 215.08 81.09 215.31 81.71C215.54 82.33 215.93 82.91 216.46 83.46C217.67 84.67 219.17 85.28 220.95 85.28C222.73 85.28 224.24 84.67 225.46 83.45C225.98 82.91 226.35 82.33 226.58 81.7C226.81 81.07 226.96 80.4 227.01 79.69C227.06 78.98 227.09 77.94 227.09 76.59C227.09 75.24 227.06 74.2 227.01 73.49C226.96 72.77 226.82 72.1 226.59 71.48H226.6ZM224.43 79.26C224.38 79.93 224.28 80.46 224.14 80.85C224 81.24 223.78 81.59 223.5 81.89C222.84 82.59 221.99 82.94 220.96 82.94C220.47 82.94 220 82.85 219.55 82.66C219.1 82.47 218.72 82.22 218.41 81.89C218.17 81.61 217.99 81.36 217.88 81.13C217.77 80.9 217.68 80.59 217.6 80.18C217.52 79.77 217.47 79.3 217.44 78.76C217.41 78.22 217.4 77.49 217.4 76.59C217.4 74.89 217.46 73.7 217.59 73.01C217.72 72.32 217.99 71.75 218.4 71.29C218.7 70.97 219.07 70.71 219.53 70.52C219.99 70.33 220.46 70.23 220.95 70.23C221.44 70.23 221.91 70.33 222.36 70.52C222.82 70.71 223.19 70.97 223.49 71.29C223.9 71.73 224.18 72.3 224.3 73C224.42 73.7 224.49 74.89 224.49 76.59C224.49 77.7 224.46 78.59 224.41 79.26H224.43Z" fill="black"/>
<path d="M20.05 63.16C20.35 62.94 20.64 62.7 20.93 62.45C21.28 62.13 21.63 61.8 21.96 61.44L23.79 59.45C21.89 61.52 19.09 62.16 17.52 60.88C15.95 59.6 16.22 56.89 18.11 54.82L26.76 45.39L27.16 44.96L29.8 42.08L43.05 27.63L44.81 25.71L45.49 24.97L46.88 23.46L50.42 19.6L52.04 17.83L52.06 17.81C52.06 17.81 52.1 17.77 52.12 17.75C52.23 17.63 52.33 17.51 52.44 17.39C52.51 17.31 52.57 17.23 52.63 17.15C52.68 17.09 52.73 17.02 52.78 16.96C52.86 16.86 52.93 16.76 53 16.67C53.02 16.64 53.04 16.61 53.07 16.58C53.77 15.62 54.31 14.61 54.68 13.6C55.04 12.63 55.24 11.66 55.28 10.74C55.65 7.26001 54.64 4.10001 52.15 2.07001C47.96 -1.33999 40.96 -0.379994 35.3 3.99001C35 4.21001 34.71 4.45001 34.42 4.70001C34.07 5.02001 33.72 5.35001 33.39 5.71001L31.56 7.70001C33.46 5.63001 36.26 4.99001 37.83 6.27001C39.4 7.55001 39.13 10.26 37.24 12.33L28.59 21.76L28.19 22.19L25.55 25.07L12.3 39.52L4.94002 47.55L3.32002 49.32L3.30002 49.34C3.30002 49.34 3.26002 49.38 3.24002 49.4C3.13002 49.52 3.03002 49.64 2.92002 49.76C2.85002 49.84 2.79002 49.92 2.73002 50C2.68002 50.06 2.63002 50.13 2.58002 50.19C2.50002 50.29 2.43002 50.39 2.36002 50.48C2.34002 50.51 2.32002 50.54 2.29002 50.57C1.59002 51.53 1.05002 52.54 0.680022 53.55C0.320022 54.52 0.120022 55.49 0.0800224 56.41C-0.289978 59.89 0.720022 63.05 3.21002 65.08C7.40002 68.49 14.4 67.53 20.06 63.16H20.05Z" fill="black"/>
<path d="M79.9202 107.94C80.1802 107.74 80.4302 107.54 80.6802 107.32C80.9902 107.05 81.2902 106.75 81.5702 106.44L83.1602 104.71C81.5202 106.5 79.0802 107.06 77.7202 105.95C76.3602 104.84 76.5902 102.49 78.2302 100.7L85.7302 92.52L86.0802 92.14L88.3702 89.64L99.8702 77.1L101.4 75.44L101.99 74.8L103.19 73.49L106.26 70.14L107.67 68.61V68.59C107.67 68.59 107.72 68.55 107.73 68.53C107.82 68.43 107.91 68.32 108 68.22C108.06 68.15 108.11 68.08 108.17 68.02C108.21 67.96 108.26 67.91 108.3 67.85C108.37 67.77 108.43 67.68 108.49 67.59C108.51 67.56 108.53 67.54 108.55 67.51C109.16 66.67 109.63 65.8 109.95 64.93C110.26 64.09 110.44 63.25 110.47 62.44C110.79 59.42 109.91 56.67 107.76 54.92C104.13 51.96 98.0502 52.79 93.1402 56.58C92.8802 56.78 92.6302 56.98 92.3802 57.2C92.0702 57.47 91.7702 57.77 91.4902 58.08L89.9002 59.81C91.5402 58.02 93.9802 57.46 95.3402 58.57C96.7002 59.68 96.4702 62.03 94.8302 63.82L87.3302 72L86.9802 72.38L84.6902 74.88L73.1902 87.42L66.8002 94.39L65.3902 95.92V95.94C65.3902 95.94 65.3402 95.98 65.3302 96C65.2402 96.1 65.1502 96.21 65.0602 96.31C65.0002 96.38 64.9502 96.45 64.8902 96.51C64.8502 96.57 64.8002 96.62 64.7602 96.68C64.6902 96.76 64.6302 96.85 64.5702 96.94C64.5502 96.97 64.5302 96.99 64.5102 97.02C63.9002 97.86 63.4302 98.73 63.1102 99.6C62.8002 100.44 62.6202 101.28 62.5902 102.09C62.2702 105.11 63.1502 107.86 65.3002 109.61C68.9302 112.57 75.0102 111.74 79.9202 107.95V107.94Z" fill="black"/>
<path d="M48.1099 93.8C48.4899 93.51 48.8699 93.21 49.2299 92.89C49.6799 92.49 50.1199 92.05 50.5399 91.59L52.8799 89.04C50.4599 91.68 46.8699 92.5 44.8599 90.87C42.8499 89.24 43.1899 85.77 45.6199 83.13L56.6799 71.07L57.1899 70.51L60.5599 66.83L77.5099 48.35L79.7599 45.9L80.6299 44.95L82.3999 43.02L86.9199 38.09L88.9899 35.83L89.0099 35.81C89.0099 35.81 89.0599 35.75 89.0799 35.73C89.2199 35.58 89.3499 35.42 89.4799 35.27C89.5599 35.17 89.6499 35.07 89.7299 34.97C89.7999 34.89 89.8599 34.81 89.9299 34.72C90.0299 34.6 90.1199 34.47 90.2199 34.34C90.2499 34.3 90.2799 34.26 90.3099 34.22C91.1999 32.99 91.8899 31.7 92.3699 30.41C92.8299 29.17 93.0899 27.93 93.1399 26.75C93.6099 22.31 92.3199 18.25 89.1399 15.67C83.7899 11.31 74.8299 12.54 67.5999 18.12C67.2199 18.41 66.8399 18.71 66.4799 19.03C66.0299 19.43 65.5899 19.87 65.1699 20.33L62.8299 22.88C65.2499 20.24 68.8399 19.42 70.8499 21.05C72.8599 22.68 72.5199 26.15 70.0899 28.79L59.0299 40.85L58.5199 41.41L55.1499 45.09L38.1999 63.57L28.7899 73.83L26.7199 76.09L26.6999 76.11C26.6999 76.11 26.6499 76.17 26.6299 76.19C26.4899 76.34 26.3599 76.5 26.2299 76.65C26.1499 76.75 26.0599 76.85 25.9799 76.95C25.9099 77.03 25.8499 77.11 25.7799 77.2C25.6799 77.32 25.5899 77.45 25.4899 77.58C25.4599 77.62 25.4299 77.66 25.3999 77.7C24.5099 78.93 23.8199 80.22 23.3399 81.51C22.8799 82.75 22.6199 83.99 22.5699 85.17C22.0999 89.61 23.3899 93.67 26.5699 96.25C31.9199 100.61 40.8799 99.38 48.1099 93.8Z" fill="black"/>
</g>
<defs>
<clipPath id="clip0_475_280">
<rect width="253.58" height="111.39" fill="white"/>
</clipPath>
</defs>
</svg>
