<svg width="48" height="48" viewBox="0 0 48 48" fill="none" xmlns="http://www.w3.org/2000/svg">
<rect width="48" height="48" rx="24" fill="black"/>
<g clip-path="url(#clip0_720_735)">
<path d="M12.5301 26.4138C12.6285 26.3413 12.7241 26.2659 12.8169 26.1822C12.9322 26.079 13.0447 25.9701 13.1516 25.8557L13.7478 25.2111C13.1291 25.878 12.2151 26.0873 11.7061 25.6743C11.1942 25.2613 11.2814 24.385 11.9001 23.718L14.7152 20.6706L14.8446 20.5311L15.7051 19.6018L20.022 14.9301L20.5957 14.3106L20.8179 14.0706L21.2706 13.5822L22.4237 12.3348L22.9524 11.7627L22.958 11.7571C22.958 11.7571 22.9693 11.7431 22.9777 11.7376C23.0114 11.6985 23.048 11.6594 23.0817 11.6204C23.1042 11.5952 23.1239 11.5701 23.1436 11.545C23.1605 11.5255 23.1774 11.5031 23.1942 11.4836C23.2195 11.4529 23.242 11.4194 23.2674 11.3887C23.2758 11.3776 23.2814 11.3692 23.2899 11.358C23.5176 11.0455 23.6948 10.7218 23.8129 10.3952C23.9282 10.0827 23.9957 9.76733 24.0098 9.46873C24.1307 8.34408 23.7989 7.31989 22.9918 6.66687C21.6278 5.56454 19.347 5.87431 17.505 7.2864C17.4066 7.35896 17.3109 7.43431 17.2181 7.51803C17.1028 7.62129 16.9903 7.73012 16.8835 7.84454L16.2873 8.48919C16.906 7.82222 17.82 7.61292 18.329 8.02594C18.8408 8.43896 18.7536 9.31524 18.1349 9.98222L15.3198 13.0297L15.1905 13.1692L14.3299 14.0985L10.0131 18.7701L7.6142 21.3655L7.08549 21.9376L7.07987 21.9431C7.07987 21.9431 7.06862 21.9571 7.06018 21.9627C7.02644 22.0018 6.98988 22.0408 6.95613 22.0799C6.93363 22.105 6.91394 22.1301 6.89426 22.1552C6.87738 22.1748 6.86051 22.1971 6.84364 22.2166C6.81833 22.2473 6.79583 22.2808 6.77052 22.3115C6.76208 22.3227 6.75646 22.3311 6.74802 22.3422C6.52023 22.6548 6.34305 22.9785 6.22494 23.305C6.10963 23.6176 6.04214 23.9329 6.02808 24.2315C5.90715 25.3562 6.239 26.3804 7.04612 27.0334C8.41008 28.1357 10.6908 27.8259 12.5329 26.4138H12.5301Z" fill="white"/>
<path d="M32.0306 40.8865C32.1149 40.8223 32.1965 40.7581 32.2781 40.6856C32.3793 40.5963 32.4749 40.5014 32.5677 40.4009L33.0852 39.8428C32.5508 40.4232 31.755 40.6018 31.3134 40.2446C30.8691 39.8874 30.945 39.1256 31.4822 38.5479L33.926 35.9023L34.0385 35.7795L34.7838 34.973L38.5298 30.9209L39.0275 30.3823L39.2188 30.173L39.6097 29.7488L40.608 28.666L41.0664 28.1721L41.0721 28.1665C41.0721 28.1665 41.0833 28.1553 41.0889 28.147C41.1199 28.1135 41.148 28.08 41.1789 28.0465C41.1986 28.0242 41.2155 28.0018 41.2324 27.9795C41.2464 27.9628 41.2605 27.9432 41.2745 27.9265C41.297 27.8986 41.3167 27.8707 41.3364 27.8428C41.342 27.8344 41.3477 27.826 41.3561 27.8177C41.553 27.547 41.7076 27.2651 41.8117 26.9832C41.9129 26.7097 41.9692 26.439 41.9804 26.1795C42.0845 25.2056 41.7976 24.3153 41.0974 23.7488C39.9134 22.7916 37.9335 23.0623 36.3362 24.2846C36.2518 24.3488 36.1702 24.413 36.0887 24.4856C35.9874 24.5749 35.8918 24.6697 35.799 24.7702L35.2816 25.3283C35.8159 24.7479 36.6118 24.5693 37.0533 24.9265C37.4976 25.2837 37.4217 26.0456 36.8846 26.6232L34.4407 29.2688L34.3282 29.3916L33.583 30.1981L29.837 34.2502L27.7559 36.5023L27.2975 36.9963L27.2919 37.0018C27.2919 37.0018 27.2806 37.013 27.275 37.0214C27.2441 37.0549 27.2159 37.0883 27.185 37.1218C27.1653 37.1442 27.1485 37.1665 27.1316 37.1888C27.1175 37.2056 27.1035 37.2251 27.0894 37.2418C27.0669 37.2697 27.0472 37.2977 27.0275 37.3256C27.0219 37.3339 27.0163 37.3423 27.0078 37.3507C26.811 37.6214 26.6563 37.9032 26.5523 38.1851C26.451 38.4586 26.3948 38.7293 26.3835 38.9888C26.2795 39.9628 26.5663 40.853 27.2666 41.4195C28.4505 42.3767 30.4304 42.106 32.0278 40.8837L32.0306 40.8865Z" fill="white"/>
<path d="M21.6701 36.3181C21.7938 36.226 21.9176 36.1284 22.0357 36.0223C22.1819 35.8912 22.3253 35.7516 22.4631 35.6037L23.2253 34.7805C22.435 35.6344 21.2679 35.8995 20.6127 35.3721C19.9602 34.8446 20.0699 33.7256 20.8601 32.8688L24.4599 28.973L24.6258 28.7944L25.7254 27.6056L31.2431 21.6335L31.9743 20.8409L32.2583 20.534L32.8348 19.9088L34.3085 18.3153L34.9834 17.5842L34.989 17.5758C34.989 17.5758 35.0059 17.5591 35.0115 17.5479C35.0565 17.4977 35.1015 17.4502 35.1437 17.4C35.1718 17.3665 35.1971 17.3358 35.2253 17.3023C35.2478 17.2772 35.2675 17.2493 35.2899 17.2214C35.3209 17.1823 35.3518 17.1405 35.3828 17.0986C35.3912 17.0846 35.4024 17.0735 35.4109 17.0595C35.7034 16.6605 35.9283 16.2446 36.0802 15.8288C36.2292 15.427 36.3136 15.0279 36.3305 14.6456C36.4852 13.2084 36.0633 11.8995 35.0284 11.0651C33.2848 9.65581 30.3685 10.0521 28.0118 11.8577C27.888 11.9498 27.7643 12.0474 27.6462 12.1535C27.4999 12.2846 27.3565 12.4242 27.2187 12.5721L26.4566 13.3953C27.2468 12.5414 28.4139 12.2763 29.0692 12.8037C29.7216 13.3312 29.612 14.453 28.8217 15.307L25.222 19.2028L25.0561 19.3814L23.9565 20.5702L18.4388 26.5423L15.3734 29.8605L14.6984 30.5916L14.6928 30.6C14.6928 30.6 14.6759 30.6167 14.6703 30.6279C14.6253 30.6781 14.5803 30.7256 14.5381 30.7758C14.51 30.8093 14.4847 30.84 14.4566 30.8735C14.4341 30.8986 14.4144 30.9265 14.3919 30.9544C14.361 30.9935 14.33 31.0353 14.2991 31.0772C14.2907 31.0912 14.2794 31.1023 14.271 31.1163C13.9785 31.5153 13.7535 31.9312 13.6016 32.347C13.4526 32.7488 13.3682 33.1479 13.3513 33.5302C13.1967 34.9674 13.6185 36.2763 14.6534 37.1107C16.397 38.52 19.3134 38.1237 21.6701 36.3181Z" fill="white"/>
</g>
<defs>
<clipPath id="clip0_720_735">
<rect width="36" height="36" fill="white" transform="translate(6 6)"/>
</clipPath>
</defs>
</svg>
