<?xml version="1.0" encoding="utf-8"?>
<!-- Generator: Adobe Illustrator 26.3.1, SVG Export Plug-In . SVG Version: 6.00 Build 0)  -->
<svg version="1.1" id="レイヤー_1" xmlns="http://www.w3.org/2000/svg" xmlns:xlink="http://www.w3.org/1999/xlink" x="0px"
	 y="0px" viewBox="0 0 300 300" style="enable-background:new 0 0 300 300;" xml:space="preserve">
<g>
	<g>
		<g>
			<path d="M59.8,191.3c0.4,0.6,0.9,1.2,1.1,1.9c0.2,0.4,0.2,1.2,0,1.5c-0.3,0.3-1.1,0.4-1.6,0.2c-3.2-1.3-6.3-2.2-9.8-2.2
				c-1.2,0-2.3-0.9-3.5-1.3c-2.1-0.7-4.1-1.3-6.2-2c-0.9-0.3-1.8-0.7-2.7-1.1c-1-0.5-2-1-3-1.5c-1.3-0.7-2.7-1.4-4-2.1
				c-2.7-1.5-5.3-3.1-8-4.6c-3.1-1.7-5.1-4.5-6.5-7.6c-2-4.7-3.9-9.4-5.7-14.1c-1.3-3.3-2-6.8-2-10.4c0-3-0.4-6.1-0.3-9.1
				c0.1-4,1.3-7.9,3-11.5c1.1-2.3,2.2-4.5,3.9-6.5c1-1.2,2-1.7,3.3-1c1.5,0.8,2.4,0.3,3.4-0.8c3.1-3.3,7.1-5.1,11.3-6.4
				c3.3-1.1,6.7-2,10.1-2.7c1.8-0.4,3.7-0.3,5.6-0.5c1.4-0.2,2.8-0.2,3.7-1.8c2-3.4,5.3-4.6,9-3.5c1.7,0.6,3.3,1.9,4.8,3.1
				c0.6,0.5,1.1,1,2,0.9c8-0.5,15.9,0,23.9,0.7c1.9,0.2,3.8,0.9,5.8,1.3c1.3,0.2,2.6,0.4,3.9,0.3c1.9-0.2,3.2,0.7,4.5,1.8
				c0.5,0.4,1.1,0.9,1.7,0.9c4.3,0.3,8.1,2.1,12.2,3.4c0.6,0.2,1,1,1.5,1.5c-0.5,0.4-1.1,0.9-1.7,1c-2.4,0.4-4.6,2.5-5.1,5
				c-0.1,0.4-0.2,0.8-0.2,1.2c0.1,3.8-1.8,6.5-5,8.3c-2.9,1.5-5.9,2.9-8.9,4.2c-5.4,2.3-10.1,5.5-12.9,10.7
				c-1.4,2.7-2.4,5.6-3.3,8.5c-1.4,4.5-3.2,8.8-5.6,12.8c-2,3.5-4.2,6.9-6.1,10.5c-1.6,3.1-1.9,6.5-2.1,9.9c-0.1,1.1,0,2.3-0.5,3.1
				c-0.7,1.3-1.9,0-2.9,0c-2.5,0-4.9-0.8-6.9-2.3C60,191,59.9,191.1,59.8,191.3z M56.9,191.5c0.1-2,0.2-3.8,0.4-5.6
				c0.5-4.2,1.2-8.4,3.4-12.1c1.3-2.2,2.8-4.3,3.9-6.6c2.1-4.4,4.3-8.8,4.6-13.9c0.2-3.4,0-7,2.1-10c1.3-1.8,2.4-3.8,3.7-5.6
				c1.1-1.3,2.2-2.7,3.7-3.6c2.7-1.6,5.6-3,8.5-4c3.9-1.3,7.9-2.4,11.6-4.5c3.7-2,5.4-5.2,4.7-8.6c-0.2-1-0.1-2.1-0.2-3.1
				c0-0.4-0.1-1-0.3-1.1c-1.5-1.1-3.2-0.3-3.3,1.6c0,1,0.1,1.9,0.3,2.9c0.5,2.6-1.9,7-4.5,7.8c-1.3,0.4-2.4,1.1-3.7,1.5
				c-1.9,0.5-3.9,1.2-5.9,1.3c-2.1,0.1-3.9,0.5-5.7,1.5c-5.1,3-9.1,7.1-12.2,12.1c-2,3.2-3.1,6.6-3.1,10.4c0.1,4.9-0.4,9.8-2.2,14.4
				c-1.3,3.3-2.8,6.5-4.3,9.8c-0.2,0.5-0.9,0.8-1.3,1.2c-0.2-0.6-0.7-1.3-0.6-1.8c0.7-1.9,1.5-3.7,2.4-5.4c2.3-4.5,3.7-9.3,3.9-14.4
				c0.1-2.8,0-5.8,0.8-8.5c2.7-9,8.7-15.5,16.8-20.1c1.3-0.7,3-0.9,4.5-1.2c1.4-0.3,3-0.1,4.3-0.5c2-0.6,4-1.5,5.9-2.5
				c2-1,2.6-2.9,2.6-5c0-1.8-0.1-3.5-0.2-5.4c-1.4-0.4-3-1-4.6-1.2c-2.6-0.4-5.1-0.6-7.7-0.7c-5.2-0.2-10.4-0.4-15.5-0.5
				c-1,0-2,0.7-3.1,0.7c-2.7,0.1-5.4,0-8,0c-2.3,0-4.6-0.3-6.8,0c-4.4,0.6-8.9,1.2-13.2,2.3c-6.7,1.7-13.3,3.8-18.1,9.3
				c-2.4,2.8-5.1,5.4-6.3,9.1c-0.2,0.6-0.5,1.1-0.8,1.6c-0.2,0-0.3,0-0.5,0c-0.1-0.6-0.4-1.2-0.2-1.7c0.5-1.6,1.1-3.2,1.9-4.6
				c0.9-1.5,2-2.9,3.1-4.3c-0.1-0.1-0.1-0.3-0.2-0.4c-0.5,0.2-1.3,0.2-1.6,0.6c-1.1,1.6-2.2,3.2-2.9,4.9c-1.1,2.7-2.2,5.6-2.9,8.4
				c-0.9,3.9-0.6,7.9-0.1,11.8c0.4,3.1,0.7,6.2,1.7,9.1c1.5,4.6,3.6,9,5.4,13.6c1.1,2.8,2.6,5.3,5.1,7c1.4,1,3,1.9,4.5,2.8
				c2.4,1.4,4.7,3,7.2,4.2c2.7,1.3,5.5,2.3,8.3,3.2c3.4,1.1,6.6,2.9,10.4,2.8C54,190.6,55.4,191.2,56.9,191.5z M116,117.9
				c-2.7-1.4-5.4-2.3-8.3-2.6c-2.3-0.2-2.5-0.1-2,2.1c0.5,2.4,0,4.6-1.6,6.3c-1.6,1.7-3.6,3.1-5.6,4.4c-3.8,2.6-8.4,3-12.6,4.6
				c-8.1,3.1-13.3,8.6-14.5,17.4c-0.3,2.4-0.2,4.9-0.8,7.2c-1.4,5-3.4,9.9-6.3,14.3c-2.7,4.2-4.5,8.7-5.1,13.6
				c-0.2,1.7-0.6,3.4,1.7,3.9c0.1,0,0.2,0.1,0.2,0.2c1.6,1.5,3.5,1.9,5.6,2c1,0,1.3-0.3,1.4-1.3c0.2-2.3,0.5-4.6,0.9-6.8
				c0.7-3.4,2.4-6.4,4.4-9.2c4.6-6.5,7.7-13.6,9.8-21.2c1.4-5.3,4.7-9.3,8.8-12.6c4-3.2,8.9-4.7,13.5-6.9c3.6-1.7,6.4-3.9,6.3-8.4
				c-0.1-2.1,0.9-3.9,2.5-5.4C115.1,119.1,115.5,118.5,116,117.9z M63.3,108.5c-3.5-3.6-7.8-3.4-9.6,0.3
				C57,108.7,60.2,108.6,63.3,108.5z"/>
		</g>
		<g>
			<path d="M104.1,191.6c-0.3-0.5-0.6-1.1-1-1.6c-1.4-2.1-1.9-4.4-2.1-6.9c-0.5-8.4,2.2-16,6.2-23.1c2-3.5,4.8-6.6,7.7-9.4
				c1.6-1.6,4.2-2.3,6.4-3c3.8-1.2,7.8-2.2,11.7-3.3c2.3-0.6,4.9-2.5,4.5-5.5c-0.2-1.1,0.1-2.2,0-3.3c-0.2-2.7,1-4.7,3.4-6.2
				c-1.9-0.3-3.9-0.5-5.7-0.9c-0.6-0.1-1.3-0.9-1.4-1.4c-0.1-0.9,0.7-1.1,1.5-0.9c2.7,0.6,5.5,1.2,8.2,2.1c0.9,0.3,1.7,1.4,2.2,2.3
				c0.6,0.9,0.1,1.6-1,1.6c-0.9,0-1.8,0-2.7,0c-1.7,0.1-2.3,0.6-2.4,2.3c-0.1,1.5-0.2,3-0.1,4.4c0.5,4.1-2.9,6.4-5.9,7.2
				c-3.7,1.1-7.4,1.8-11.1,2.9c-3.9,1.2-7.3,3-10,6.5c-3.2,4.1-5.6,8.5-7.3,13.3c-1.6,4.5-2.5,9.1-2.2,13.9c0.2,3,1.2,5.6,3,8
				c0.6,0.8,0.9,1.8,1.3,2.8c-1.1,0.2-2.1,0.6-3.2,0.5c-2.7-0.3-5.3-0.9-7.9-1.4c-0.7-0.1-1.1,0.1-1.7,0.5c-1.2,0.6-2.7,0.9-4.2,1.1
				c-4.2,0.4-7.8-1.4-11.4-3.4c-0.8-0.5-1.8-0.8-2.5-1.4c-0.4-0.3-0.6-1-0.9-1.5c0.6-0.1,1.3-0.5,1.7-0.3c2.5,1.1,4.8,2.4,7.3,3.5
				c2.2,1,4.5,1.4,7,0.7c0-0.3,0-0.5,0-0.7c-2.1-5.5-2.1-11.2-1.1-16.8c1.2-6.8,3.6-13.3,7.7-18.9c4.4-6.1,9.8-11.1,17-13.9
				c2.7-1.1,5.5-2.1,8.2-3.2c3.4-1.4,5.6-5.9,4.5-9.4c-0.1-0.3-0.2-0.6-0.3-0.9c-0.5-1.4-0.6-2.6,1-3.4c0.5-0.2,0.9-0.7,1.5-1.2
				c-2.1-0.8-4-1.7-6-2.4c-0.9-0.3-1.5-0.8-1.2-1.7c0.1-0.3,1.2-0.5,1.8-0.3c2.5,0.8,4.9,1.7,7.3,2.6c0.5,0.2,1.1,0.6,1.5,1
				c0.6,0.7,0.6,1.5-0.5,1.9c-1.1,0.5-2.6,0.9-3.1,1.8c-0.5,0.8,0.1,2.3,0.3,3.4c0.5,2.2-0.1,4.1-1.5,5.8c-1.8,2.3-3.9,4-6.8,5
				c-7.7,2.6-14.7,6.4-20.1,12.8c-2.8,3.3-4.7,7-6.4,10.9c-2.4,5.5-3.9,11.2-3.7,17.3c0,1.4,0.4,2.8,0.5,4.2
				c0.1,2.2,0.8,3.9,3.4,4.3c2.8,0.5,5.6,1.3,8.3,2C103.9,191.9,104,191.8,104.1,191.6z"/>
		</g>
		<g>
			<path d="M165.2,180.3c-0.3,0.5-0.6,0.9-0.8,1.4c-0.6,1.7-1.3,3.4-1.6,5.1c-0.3,1.5,1.2,1.9,2.3,2.1c1.8,0.3,3.7,0.4,5.6,0.3
				c3.8-0.1,7.6-0.4,11.4-0.7c0.4,0,0.8-0.2,1.6-0.3c-1.4-1.2-2.5-2.2-3.7-3.2c-0.6-0.5-1.3-1-0.7-1.8c0.6-0.9,1.3-0.5,2.1-0.1
				c0.5,0.3,1.1,0.2,1.7,0.3c0.2,0,0.4-0.1,0.6,0c3.4,1.3,6.3,0,9.4-1.2c2.5-1,5.1-1.8,7.7-2.7c0.6-0.2,1.1-0.5,1.6-0.7
				c0-0.2,0.1-0.3,0.1-0.5c-1.7-0.7-3.4-1.5-5.1-2.2c-1.5-0.7-3.1-1.2-4.4-2.2c-2.1-1.5-4-3.3-6-5c-0.4-0.3-0.9-0.3-1.4-0.6
				c-0.5-0.3-0.8-0.7-1.2-1.1c0.4-0.4,0.8-1.2,1.2-1.2c0.9,0,2.2,0.1,2.6,0.7c1.8,2.5,4.3,2.9,7.1,2.6c3-0.3,5.5,1,8,2.4
				c1,0.6,1,1.5,0.1,2.2c-0.4,0.3-0.9,0.6-1.6,1.1c0.7,0.5,1.1,1,1.7,1.3c1.6,0.7,2,2.3,0.8,3.5c-0.7,0.6-1.6,1.1-2.5,1.4
				c-2.6,1-5.3,2-8,2.9c-2.1,0.7-4.2,1.4-6.4,2c-0.5,0.2-1.1,0.2-1.8,0.4c0.3,0.8,0.6,1.4,0.8,2c0.3,1,0.1,1.6-1,1.7
				c-6.1,0.3-12.3,0.7-18.4,0.9c-1,0-2-0.2-3-0.5c-2.3-0.7-3.4-2.3-3-4.7c0.2-1.5,0.7-3,1.3-4.3
				C162.7,180.8,163.5,179.9,165.2,180.3z M194.5,171.5c0.4,0.6,0.6,1.2,0.9,1.4c1.3,0.5,2.6,0.9,3.9,1.2c0.3,0.1,0.7-0.5,1.2-0.8
				C198.8,171.6,196.8,171.7,194.5,171.5z"/>
		</g>
		<g>
			<path d="M116.7,193.5c-0.6-2.9-1.5-5.2-1.6-7.5c-0.1-4.5,0.3-9.1,2.6-13.2c2.3-3.9,4.5-7.9,8-10.9c2-1.8,3.8-4,6.1-5.1
				c3.9-1.9,8.2-3.2,12.3-4.7c2.2-0.8,4.5-1.6,6.6-2.6c2-1,2.5-2.9,1.6-4.9c-0.1-0.1-0.1-0.3-0.2-0.4c-1.5-3.4-1.5-3.4,1.6-5.7
				c-1.3-1.3-2.4-2.7-4.3-3.2c-0.8-0.2-1.6-0.6-2.3-1.1c-0.3-0.2-0.3-0.8-0.4-1.2c0.4-0.1,0.8-0.3,1.2-0.2c3.5,0.6,6,2.8,8.4,5.2
				c1,1.1,0.9,1.7-0.4,2.3c-0.3,0.2-0.6,0.3-1,0.4c-1.3,0.5-1.6,1.2-0.9,2.4c0.2,0.4,0.3,0.8,0.5,1.3c1,3.4-0.1,6-3.4,7.3
				c-3.4,1.3-6.9,2.3-10.4,3.5c-2.3,0.8-4.6,1.6-6.7,2.7c-4.2,2.3-7.7,5.6-10.5,9.5c-1,1.4-2,3-2.9,4.5c-3,4.6-3.9,9.9-3.3,15.2
				c0.2,2.4,1.8,4.7,2.7,7c0.2,0.5,0.3,1.1,0.4,1.6c-0.5,0.1-1.1,0.3-1.5,0.2c-2.7-0.5-5.4-0.9-7.7-2.6c-0.6-0.5-1.3-0.8-0.9-1.6
				c0.5-1,1.2-0.6,2-0.2C113.7,192.1,115.1,192.7,116.7,193.5z"/>
		</g>
		<g>
			<path d="M167.7,146.3c-1-2-2.3-3.3-4.6-2.9c-1,0.2-2.1,0-3.2-0.2c-0.9-0.1-1.8-0.4-1.6-1.6c0.2-1.1,1.1-0.8,1.8-0.8
				c1.6,0.1,3.2,0.2,4.8,0.5c0.7,0.1,1.5,0.3,1.9,0.8c1.2,1.3,2.3,2.7,3.3,4.2c0.8,1.2,0.4,1.7-0.9,2.1c-1.1,0.3-2.2,0.6-3.2,1
				c-0.9,0.4-1.4,1.1-1.2,2.2c0.6,3.6-0.8,6.3-4.2,7.6c-2.3,0.9-4.6,1.5-7,2.1c-4,1.1-8,2.3-11,5.3c-6.2,6.2-9.8,13.6-9.5,22.5
				c0.1,1.5,0.6,3.1,1,4.6c0.4,1.9,0,2.4-1.9,2c-2.6-0.5-5.2-0.9-7.7-1.6c-1.1-0.3-2.2-1-3.2-1.6c-0.3-0.2-0.2-1-0.3-1.5
				c0.5,0,1.1-0.2,1.5,0c2.8,1.8,5.9,2.2,9.2,2.5c0-0.3,0.2-0.6,0.1-0.8c-1.6-6.9,0.1-13.1,3.5-19c1.7-2.9,3.7-5.8,6-8.2
				c3.4-3.6,8.2-5,12.9-6.2c1.9-0.5,3.8-1,5.7-1.8c2.9-1.2,3.6-2.8,3-5.9c-0.3-1.5,0.5-3.2,1.8-3.9
				C165.6,147.3,166.6,146.9,167.7,146.3z"/>
		</g>
		<g>
			<path d="M146.2,192.6c-0.5-1.8-1.3-3.4-1.4-5.1c-0.2-4.1,0.9-7.9,3.4-11.3c2.9-4,6.8-6.9,11.2-8.9c4.3-1.9,8.7-3.6,13.1-5.3
				c2.2-0.9,2.5-1.4,1.6-3.5c-0.7-1.6-0.4-2.7,1-3.7c0.3-0.2,0.6-0.5,1.2-0.9c-1.9-0.8-3.6-1.5-5.2-2.2c-0.5-0.2-0.9-0.8-1.3-1.2
				c0.6-0.3,1.2-0.9,1.7-0.8c2.9,0.4,5.3,2,7.5,3.8c1.1,0.9,0.6,2.1-0.7,2.5c-2.3,0.7-2.3,0.8-1.4,3c0.6,1.5,0.1,3.1-1.6,4.1
				c-1.9,1.1-4,2-6.1,2.9c-3.6,1.5-7.3,2.7-10.7,4.3c-4.4,2.1-8.2,5.3-10.1,9.9c-0.9,2.2-1.2,4.7-1.4,7.1c-0.2,1.8,0.9,3.3,2.2,4.5
				c0.3,0.2,0.6,0.4,0.8,0.7c0.3,0.6,0.6,1.3,0.8,2c-0.6,0.2-1.3,0.5-1.9,0.5c-2.4,0.1-4.8,0.2-7.2,0.1c-1,0-2.1-0.3-3-0.7
				c-0.3-0.1-0.2-1.1-0.3-1.7c0.6,0,1.1,0,1.7,0c0.2,0,0.4,0.3,0.6,0.3C142.5,192.8,144.4,192.7,146.2,192.6z"/>
		</g>
		<g>
			<path d="M157.4,191.4c-0.3-1.4-0.9-2.8-0.8-4.1c0.3-5.6,3.1-9.4,8.1-12c3.1-1.6,6.3-2.7,9.6-3.7c3.9-1.1,6.6-3.3,7.1-7.8
				c0.1-1,1.5-2,2.4-3.2c-0.8-1.2-2.1-2.3-4.1-2.4c-0.8,0-1.7-0.1-1.5-1.2c0.1-1,1-1,1.8-0.9c3.4,0.3,5.4,2.4,6.8,5.2
				c0.7,1.4,0.2,2-1.4,2.2c-1.3,0.1-1.9,0.6-2.1,1.9c-0.3,2.4-1.5,4.2-3.6,5.6c-2.2,1.5-4.6,2.5-7.2,3.2c-3.1,0.9-6.3,2.2-9,3.9
				c-3.2,2-4.5,5.3-4.6,9c0,1.1,0.7,2.3,1.4,3.3c1.1,1.6,1,2.2-0.8,2.7c-0.8,0.2-1.7,0.3-2.6,0.3c-1.5,0-3-0.1-4.6-0.2
				c-0.4,0-0.8-0.6-1.2-0.9c0.3-0.3,0.7-1,1-1c1.3-0.1,2.5-0.1,3.8-0.1C156.4,191.3,157,191.4,157.4,191.4z"/>
		</g>
		<g>
			<path d="M176.1,177.3c-0.7,0.6-1.4,1.1-2.2,1.7c1.9,0.1,3.8,0.5,5.7,0.3c3-0.2,5.5,1.2,8.1,2.2c0.2,0.1,0.5,0.6,0.5,0.8
				c0,0.3-0.4,0.7-0.6,0.8c-0.7,0.1-1.6,0.2-2.2-0.1c-3.9-2.2-8.1-1.6-12.2-1.6c-1.4,0-2.8,0.2-4.3,0.1c-0.4,0-0.9-0.3-1.1-0.6
				c-0.2-0.3,0-0.9,0.2-1.3C169.2,177.8,173.4,176.3,176.1,177.3z"/>
		</g>
		<g>
			<path d="M44.5,184.7c-0.1,0.2-0.2,0.7-0.4,0.7c-0.6,0.1-1.2,0.2-1.7,0c-0.8-0.2-1.5-0.7-2.1-1.1c-0.3-0.2-0.5-0.6-0.6-0.9
				c0-0.2,0.2-0.6,0.5-0.7C41.1,182.1,44.2,183.5,44.5,184.7z"/>
		</g>
		<g>
			<path d="M45.7,185.2c0.7,0.1,1.1,0.2,1.6,0.3c0.5,0.1,0.9,0.2,1.4,0.4c0.4,0.1,0.8,0.3,1.1,0.6c0.1,0.1,0,0.7-0.2,0.8
				c-0.4,0.2-0.9,0.4-1.4,0.3c-0.7-0.1-1.5-0.2-2.2-0.5c-0.4-0.2-0.8-0.6-1.2-0.9C45.2,185.9,45.5,185.6,45.7,185.2z"/>
		</g>
		<g>
			<path d="M32,176.3c-0.8,0.6-1.2,1.2-1.4,1.1c-0.7-0.1-1.4-0.6-2.1-0.9c0.2-0.4,0.5-1.1,0.7-1.1C30,175.6,30.8,175.9,32,176.3z"/>
		</g>
		<g>
			<path d="M13.1,140.9c-0.7-0.4-1.2-0.8-1.8-1.1c0.3-0.4,0.6-1.1,0.8-1c0.8,0.1,1.5,0.4,2.3,0.7C14,139.8,13.6,140.2,13.1,140.9z"
				/>
		</g>
		<g>
			<path d="M30.4,164c-0.6,0.5-1,0.9-1.2,0.9c-0.8-0.3-1.5-0.8-2.3-1.2c0.3-0.3,0.6-0.9,0.7-0.9C28.5,163.1,29.2,163.5,30.4,164z"/>
		</g>
		<g>
			<path d="M22.9,168.5c-0.7-0.5-1.2-0.8-1.8-1.1c0.3-0.4,0.7-1.1,1-1c0.7,0,1.3,0.4,1.9,0.7C23.7,167.4,23.4,167.8,22.9,168.5z"/>
		</g>
		<g>
			<path d="M24.5,167.8c0.8,0.5,1.4,0.9,2.1,1.3c-0.3,0.3-0.7,1-0.9,1c-0.7-0.2-1.3-0.7-1.9-1C24,168.7,24.2,168.4,24.5,167.8z"/>
		</g>
		<g>
			<path d="M33.2,180c-0.7-0.4-1.2-0.7-1.7-1c0.3-0.4,0.6-1,1-1.1c0.6,0,1.2,0.4,1.9,0.6C33.9,178.9,33.6,179.3,33.2,180z"/>
		</g>
		<g>
			<path d="M20.2,143.7c0.7,0.4,1.1,0.6,1.4,0.9c-0.4,0.5-0.8,1-1.4,1.4c-0.1,0.1-1-0.5-0.9-0.6C19.5,144.9,19.8,144.4,20.2,143.7z"
				/>
		</g>
		<g>
			<path d="M28,173.9c-0.8-0.8-1.3-1.2-1.8-1.8c0-0.1,0.5-0.6,0.7-0.9c0.5,0.4,1.1,0.8,1.5,1.3C28.5,172.7,28.2,173.2,28,173.9z"/>
		</g>
		<g>
			<path d="M35.8,165.4c0.3,1.6-0.4,2.1-1.3,2.1c-0.3,0-0.6-0.7-0.9-1C34.3,166.1,35.1,165.8,35.8,165.4z"/>
		</g>
		<g>
			<path d="M44.7,174.8c-0.5-0.4-0.8-0.6-1.2-0.8c0.4-0.5,0.7-1.1,1.2-1.4c0.2-0.1,0.8,0.3,1.2,0.5
				C45.5,173.6,45.2,174.1,44.7,174.8z"/>
		</g>
		<g>
			<path d="M20.4,164.8c-0.6-0.5-1.1-0.8-1.3-1.2c-0.1-0.2,0.4-0.9,0.6-0.9c0.5,0,1,0.3,1.6,0.5C21.1,163.6,20.9,164,20.4,164.8z"/>
		</g>
		<g>
			<path d="M52,173.5c-0.4,0.6-0.7,1-1,1.4c-0.3-0.3-1-0.6-1-0.9c0-0.5,0.4-1,0.7-1.5C51.1,172.8,51.4,173.1,52,173.5z"/>
		</g>
		<g>
			<path d="M21.8,148.6c-0.2,1.4-0.7,1.9-1.6,1.5c-0.3-0.1-0.4-0.8-0.6-1.1C20.2,148.9,20.9,148.8,21.8,148.6z"/>
		</g>
		<g>
			<path d="M27.3,132.2c0.6,0.5,1.2,0.8,1.2,1c0,0.4-0.4,1-0.8,1.2c-0.2,0.1-1.1-0.3-1.1-0.6C26.6,133.4,27,132.9,27.3,132.2z"/>
		</g>
		<g>
			<path d="M22.7,127.2c0.5,0.6,1.1,0.9,1.1,1.2c0,0.4-0.4,0.9-0.7,1.3c-0.4-0.3-0.9-0.6-1.1-1C21.9,128.4,22.4,127.9,22.7,127.2z"
				/>
		</g>
		<g>
			<path d="M25.1,154.3c-0.5,0.6-0.8,1.1-1,1.1c-0.5-0.1-0.9-0.4-1.2-0.8c-0.1-0.1,0.4-1,0.6-1C23.9,153.6,24.4,154,25.1,154.3z"/>
		</g>
		<g>
			<path d="M39,182.3c-0.3,1.2-1,1.4-2,1.1c-0.2-0.1-0.4-0.8-0.3-1C37.4,181.7,38.2,181.8,39,182.3z"/>
		</g>
		<g>
			<path d="M21.9,135c-0.3,0.6-0.5,0.9-0.7,1.3c-0.4-0.4-0.9-0.7-1.2-1.1c-0.1-0.2,0.4-0.7,0.5-1C20.9,134.3,21.3,134.6,21.9,135z"
				/>
		</g>
		<g>
			<path d="M39.7,161.3c0.6,0.6,1.1,0.9,1.2,1.4c0.1,0.3-0.3,0.7-0.5,1.1c-0.4-0.3-0.9-0.6-1.2-1C39.1,162.6,39.4,162.1,39.7,161.3z
				"/>
		</g>
		<g>
			<path d="M14.6,147.5c0.6,0.5,1.1,0.7,1.2,1.1c0.1,0.3-0.4,0.9-0.7,1c-0.3,0.1-1-0.3-1.1-0.6C13.8,148.7,14.2,148.2,14.6,147.5z"
				/>
		</g>
		<g>
			<path d="M36.1,181.4c-0.7-0.4-1.1-0.7-1.6-1c0.2-0.3,0.5-1,0.7-0.9c0.5,0.1,1,0.4,1.4,0.8C36.7,180.3,36.3,180.8,36.1,181.4z"/>
		</g>
		<g>
			<path d="M33.4,164c-0.5,0.4-0.9,0.9-1.4,1.1c-0.2,0.1-1-0.5-0.9-0.6c0.2-0.5,0.5-1,0.8-1.4c0.1-0.1,0.6,0.2,1,0.3
				C33.1,163.6,33.3,163.8,33.4,164z"/>
		</g>
		<g>
			<path d="M40.1,174c0.6,0.1,1.1,0.3,1.7,0.4c-0.1,0.4-0.2,0.8-0.4,1.2c-0.5-0.2-1.1-0.5-1.6-0.7C39.9,174.6,40,174.3,40.1,174z"/>
		</g>
		<g>
			<path d="M15.4,143.2c-0.6,0.5-1,0.9-1.4,1c-0.3,0.1-0.7-0.4-1-0.6c0.3-0.4,0.5-1,0.8-1.1C14.2,142.4,14.7,142.8,15.4,143.2z"/>
		</g>
		<g>
			<path d="M50.9,180.6c-0.5,0.7-0.8,1.1-1.1,1.4c-0.1,0.1-0.6-0.3-0.9-0.5c0.2-0.4,0.4-0.9,0.8-1.3
				C49.7,180.2,50.2,180.5,50.9,180.6z"/>
		</g>
		<g>
			<path d="M40.4,167.8c0.5,0.4,1,0.7,1,0.8c0,0.4-0.3,0.9-0.5,1.3c-0.3-0.2-0.9-0.3-1-0.6C39.8,169,40.1,168.5,40.4,167.8z"/>
		</g>
		<g>
			<path d="M34.3,158.6c-0.6,0.7-0.9,1.1-1.2,1.4c-0.3-0.3-0.7-0.5-0.7-0.8c0-0.4,0.3-0.8,0.7-1C33.2,158.2,33.6,158.4,34.3,158.6z"
				/>
		</g>
		<g>
			<path d="M27.5,161.3c-0.5-0.4-1.1-0.7-1.1-0.9c0-0.4,0.4-0.9,0.7-1c0.2-0.1,0.7,0.3,1.1,0.4C28,160.2,27.8,160.6,27.5,161.3z"/>
		</g>
		<g>
			<path d="M18.9,159.8c-0.6-0.5-1.1-0.8-1.2-1.1c-0.1-0.2,0.4-0.9,0.6-0.9c0.3,0,0.9,0.3,1,0.6C19.4,158.7,19.1,159.1,18.9,159.8z"
				/>
		</g>
		<g>
			<path d="M29.5,148.1c-0.5,0.5-0.7,0.9-1.1,1.1c-0.1,0.1-0.7-0.4-0.7-0.6c0-0.4,0.4-0.8,0.6-1.2C28.5,147.6,28.9,147.8,29.5,148.1
				z"/>
		</g>
		<g>
			<path d="M28.9,157.4c0.5,0.5,1,0.7,1.1,1c0,0.3-0.3,0.8-0.6,1c-0.2,0.1-0.9-0.2-0.9-0.4C28.4,158.5,28.7,158.1,28.9,157.4z"/>
		</g>
		<g>
			<path d="M25.8,143.1c-0.5-0.6-0.9-0.9-0.9-1.2c0-0.3,0.4-0.7,0.6-1c0.3,0.3,0.8,0.5,0.9,0.8C26.4,141.9,26.1,142.3,25.8,143.1z"
				/>
		</g>
		<g>
			<path d="M33.7,163.1c-0.2-0.3-0.6-0.6-0.7-0.9c0-0.4,0.3-0.8,0.4-1.2c0.3,0.3,0.7,0.5,0.8,0.8c0.1,0.4-0.1,0.9-0.2,1.3
				C34,163.1,33.8,163.1,33.7,163.1z"/>
		</g>
		<g>
			<path d="M45.4,152.1c-1.6,0-3.1-0.3-4.5-1c-2.1-1-3.5-2.7-3.9-4.6c-0.8-3.5,2.2-6.2,8.4-7.6c6-1.3,9.4-0.1,10.2,3.5
				c0.4,2-0.1,4.1-1.6,5.9c-1.5,1.8-3.6,3-6.1,3.5C47.1,152,46.2,152.1,45.4,152.1z M49.6,139.2c-1.1,0-2.5,0.2-4,0.5
				c-4,0.9-8.5,2.7-7.7,6.5c0.4,1.7,1.6,3.1,3.4,4c1.9,0.9,4.1,1.1,6.4,0.6c2.3-0.5,4.2-1.6,5.6-3.2c1.3-1.6,1.8-3.4,1.4-5.1
				C54.3,140.4,52.6,139.2,49.6,139.2z"/>
		</g>
		<g>
			<path d="M44.5,142.9c0.7,0.4,1.1,0.6,1.4,0.9c-0.4,0.5-0.8,1-1.4,1.4c-0.1,0.1-1-0.5-0.9-0.6C43.8,144.1,44.1,143.6,44.5,142.9z"
				/>
		</g>
		<g>
			<path d="M41.3,145.4c0.1,0.5,0.2,0.7,0.3,1c-0.4,0-0.8,0-1.2,0c-0.1,0-0.2-0.6-0.2-0.6C40.5,145.5,40.8,145.5,41.3,145.4z"/>
		</g>
		<g>
			<path d="M46,147.9c-0.2,1.4-0.7,1.9-1.6,1.5c-0.3-0.1-0.4-0.8-0.6-1.1C44.5,148.1,45.2,148,46,147.9z"/>
		</g>
		<g>
			<path d="M50.2,145.9c-0.5,0.5-0.7,0.9-1.1,1.1c-0.1,0.1-0.7-0.4-0.7-0.6c0-0.4,0.4-0.8,0.6-1.2C49.3,145.4,49.7,145.6,50.2,145.9
				z"/>
		</g>
		<g>
			<path d="M53.7,145.1c-0.5,0.5-0.7,0.9-1.1,1.1c-0.1,0.1-0.7-0.4-0.7-0.6c0-0.4,0.4-0.8,0.6-1.2C52.8,144.6,53.1,144.8,53.7,145.1
				z"/>
		</g>
		<g>
			<path d="M50.1,142.3c-0.5-0.6-0.9-0.9-0.9-1.2c0-0.3,0.4-0.7,0.6-1c0.3,0.3,0.8,0.5,0.9,0.8C50.7,141.1,50.4,141.6,50.1,142.3z"
				/>
		</g>
	</g>
	<g>
		<path d="M223,194.1h-12.7c-0.6,0-1.1-0.5-1.1-1.1v-0.7c0-0.6,0.5-1.1,1.1-1.1H223c0.6,0,1.1,0.5,1.1,1.1v0.7
			C224.1,193.6,223.6,194.1,223,194.1z"/>
	</g>
	<g>
		<path d="M223.5,181.4h-13.6c-0.3,0-0.6-0.3-0.6-0.6v-0.5c0-0.3,0.3-0.6,0.6-0.6h13.6c0.3,0,0.6,0.3,0.6,0.6v0.5
			C224.1,181.1,223.8,181.4,223.5,181.4z"/>
	</g>
	<g>
		<path d="M237.6,194.1h-11.3c-0.6,0-1-0.5-1-1v-0.8c0-0.6,0.5-1,1-1h11.3c0.6,0,1,0.5,1,1v0.8C238.6,193.6,238.1,194.1,237.6,194.1
			z"/>
	</g>
	<g>
		<path d="M238,181.4h-12.2c-0.3,0-0.6-0.3-0.6-0.6v-0.6c0-0.3,0.3-0.6,0.6-0.6H238c0.3,0,0.6,0.3,0.6,0.6v0.6
			C238.6,181.1,238.4,181.4,238,181.4z"/>
	</g>
	<g>
		<path d="M246.4,194.1h-4c-0.7,0-1.2-0.5-1.2-1.2v-0.4c0-0.7,0.5-1.2,1.2-1.2h4c0.7,0,1.2,0.5,1.2,1.2v0.4
			C247.6,193.6,247,194.1,246.4,194.1z"/>
	</g>
	<g>
		<path d="M246.7,181.4h-4.6c-0.5,0-0.9-0.4-0.9-0.9v0c0-0.5,0.4-0.9,0.9-0.9h4.6c0.5,0,0.9,0.4,0.9,0.9v0
			C247.6,181,247.2,181.4,246.7,181.4z"/>
	</g>
	<g>
		<path d="M268.7,193.4H252c-0.7,0-1.2-0.5-1.2-1.2v-0.4c0-0.7,0.5-1.2,1.2-1.2h16.6c0.7,0,1.2,0.5,1.2,1.2v0.4
			C269.9,192.9,269.3,193.4,268.7,193.4z"/>
	</g>
	<g>
		<path d="M269.2,180.7h-17.7c-0.4,0-0.7-0.3-0.7-0.7v-0.4c0-0.4,0.3-0.7,0.7-0.7h17.7c0.4,0,0.7,0.3,0.7,0.7v0.4
			C269.9,180.4,269.6,180.7,269.2,180.7z"/>
	</g>
	<g>
		<path d="M289.5,194.1h-15.2c-0.7,0-1.2-0.5-1.2-1.2v-0.5c0-0.7,0.5-1.2,1.2-1.2h15.2c0.7,0,1.2,0.5,1.2,1.2v0.5
			C290.6,193.6,290.1,194.1,289.5,194.1z"/>
	</g>
	<g>
		<path d="M290,181.4h-16.2c-0.4,0-0.7-0.3-0.7-0.7v-0.4c0-0.4,0.3-0.7,0.7-0.7H290c0.4,0,0.7,0.3,0.7,0.7v0.4
			C290.6,181.1,290.3,181.4,290,181.4z"/>
	</g>
</g>
</svg>
