<?xml version="1.0" encoding="utf-8"?>
<!-- Generator: Adobe Illustrator 26.3.1, SVG Export Plug-In . SVG Version: 6.00 Build 0)  -->
<svg version="1.1" id="レイヤー_1" xmlns="http://www.w3.org/2000/svg" xmlns:xlink="http://www.w3.org/1999/xlink" x="0px"
	 y="0px" viewBox="0 0 300 300" style="enable-background:new 0 0 300 300;" xml:space="preserve">
<style type="text/css">
	.st0{fill:#FFFFFF;}
</style>
<g id="fqn5z1_00000093143047362434356880000001639128012675150000_">
	<g>
		<path d="M143.1,212.2c-1.8,3.3-3.4,6.2-4.9,9.1c-1.2,2.5-2.3,5-3.3,7.5c-0.3,0.8-0.6,1.7-0.7,2.6c-1.1,6.1-2.1,12.3-3.2,18.4
			c-0.1,0.7-0.2,1.5-0.5,2c-0.5,0.8-1.2,1.3-1.8,2c-0.6-0.7-1.5-1.3-1.8-2.1c-0.4-1-0.4-2.2-0.2-3.2c0.8-5.3,1.6-10.6,2.6-15.9
			c0.5-2.4,0.8-4.7,0-7.2c-0.3-1.2,0.1-2.6,0.4-3.9c0.4-1.8,0.9-3.6,1.3-5.5c-0.2-0.2-0.4-0.3-0.6-0.5c-0.8,0.4-1.5,1-2.3,1.3
			c-4.8,2.3-7.4,6.4-9.9,10.9c-5.4,9.8-9,20.2-12.2,30.9c-0.3,1-0.7,2-1.1,2.8c-0.2,0.4-0.9,1-1.2,1c-0.5-0.1-1.1-0.6-1.4-1.1
			c-0.3-0.6-0.3-1.4-0.1-2.1c2.3-10.5,4.6-20.9,9.9-30.4c1.5-2.8,3.1-5.5,4.6-8.2c0.3-0.6,0.5-1.3,0.8-2c-0.2-0.1-0.3-0.2-0.5-0.3
			c-0.8,0.8-1.7,1.5-2.3,2.4c-3.3,4.7-6.4,9.6-9.8,14.2c-3.6,4.8-7.5,9.3-11.4,13.8c-0.4,0.5-1.4,0.5-2.1,0.8
			c-0.1-0.8-0.6-1.7-0.3-2.4c0.4-1.1,1.1-2.2,1.8-3.2c3.3-4.9,6.7-9.7,10-14.6c0.4-0.6,0.7-1.3,1.1-1.9c-0.1-0.1-0.3-0.2-0.4-0.3
			c-0.6,0.3-1.1,0.7-1.7,1.1c-6.5,4.6-13.1,9.3-19.6,13.9c-1.1,0.8-2.3,1.4-3.6,1.8c-0.6,0.2-1.5-0.1-2.2-0.3c0.2-0.7,0.3-1.5,0.7-2
			c1.7-1.6,3.6-3.1,5.4-4.6c0.5-0.5,0.9-1,1.4-1.6c-0.1-0.2-0.3-0.4-0.4-0.6c-1.6,0.9-3.1,1.8-4.7,2.6c-5,2.6-10.1,5.3-15.2,7.9
			c-0.9,0.5-2.5,1.4-3.2-0.1c-0.7-1.4,0.9-2,1.8-2.6c7.4-4.5,14.8-9,22.2-13.5c1.6-1,3.2-1.9,4.7-3c4.2-3.2,8.3-6.4,12.4-9.7
			c0.8-0.7,1.5-1.6,2.1-2.6c-2.7,0.1-4.9,0.8-6.8,2.6c-2,1.9-4.1,3.7-6.2,5.5c-0.2,0.2-0.4,0.3-0.6,0.5c-2.4,1.8-3.3,1.5-4.3-1.4
			c-3.4,1.3-6.7,2.8-10.1,4c-7.2,2.3-13.9,5.5-20.3,9.5c-0.9,0.5-1.8,1-2.8,1.2c-0.7,0.1-1.5-0.3-2.2-0.5c0.3-0.8,0.3-1.9,0.8-2.3
			c1.7-1.2,3.6-2.3,5.5-3.2c3.3-1.4,6.3-3.2,8.8-5.8c4.5-4.7,10.5-7.1,16-10.1c1.6-0.9,3.1-2,4.6-3c0.2-0.2,0.3-0.5,0.7-1.2
			c-2.9,1-5.4,1.8-8,2.6c-1.2,0.4-2.4,0.8-3.7,1c-0.6,0.1-1.3-0.5-2-0.7c0.5-0.5,0.8-1.2,1.4-1.5c7.6-3.1,14.8-6.8,21.6-11.2
			c0.6-0.4,1.2-0.8,1.7-1.2c0.1-0.1,0.1-0.2,0.3-0.7c-0.7,0.1-1.3,0-1.8,0.2c-10.1,2.9-19.8,6.7-28.7,12.3c-2.1,1.3-4.4,2.4-6.7,3.4
			c-6.6,3.2-13.1,6.3-19.7,9.5c-0.7,0.3-1.4,0.6-2.2,0.7c-0.4,0-1.1-0.2-1.3-0.6c-0.2-0.3,0.1-1.1,0.4-1.3c0.7-0.6,1.4-1.1,2.2-1.5
			c6.5-3.3,13.1-6.6,19.5-9.9c2.3-1.2,4.6-2.6,6.8-4c6.9-4.8,14.5-8.3,22.4-10.9c3.2-1,5.6-2.8,7.3-6.2c-1.5,0.4-2.6,0.7-3.8,1
			c-6,1.7-12.1,3.4-18,5.6c-4.6,1.8-9.7,2.2-14.6,3.2c-4.4,0.9-8.8,1.9-13.2,2.5c-3.1,0.5-6.2,0.5-9.3,0.6c-0.7,0-1.4-0.1-2-0.5
			c-0.7-0.4-1.2-1-1.8-1.5c0.6-0.3,1.3-0.7,1.9-0.9c4.6-1.2,9.3-2.4,14-3.6c1.4-0.3,2.8-0.4,4.2-0.8c7.1-1.6,14.1-3.3,21.1-4.9
			c0.7-0.2,1.3-0.5,1.9-0.7c0-0.2-0.1-0.3-0.1-0.5c-1.1,0.1-2.3,0.2-3.4,0.4c-14.4,2.2-28.8,1.8-43.1-0.3c-0.4-0.1-0.9,0-1.3-0.2
			c-0.4-0.2-1-0.7-1-0.9c0.1-0.5,0.6-1.1,1-1.2c1.7-0.3,3.4-0.4,5.2-0.5c9.7-0.4,19.6-0.1,29.2-1.4c10.1-1.4,20-4.4,30-6.7
			c0.9-0.2,1.7-0.9,2.4-1.5c0.4-0.4,0.3-1.1,0.5-1.7c-0.5-0.1-1.1-0.4-1.6-0.3c-4.8,0.6-9.7,1.2-14.5,1.8c-2.2,0.2-4.4,0.2-6.5,0.1
			c-1.1-0.1-2.3-0.5-3.3-0.9c-0.5-0.2-0.9-0.9-0.9-1.4c0-0.4,0.6-1,1.1-1.1c2.1-0.4,4.3-0.8,6.4-1.1c6-0.8,12-1.3,17.9-2.4
			c2.7-0.5,5.2-2,7.8-3.2c0.5-0.2,0.7-1.1,1-1.6c-0.5-0.3-1-0.6-1.6-0.8c-7.4-1.7-14.9-0.9-22.4-0.3c-1.1,0.1-2.3,0.2-3.4,0
			c-0.7-0.1-1.3-0.9-1.9-1.3c0.5-0.6,0.9-1.4,1.6-1.6c4.6-1.6,9.3-2.2,14.2-2.1c4.3,0,8.6-0.3,12.9-0.2c4,0,5.5-2.6,6.9-6.1
			c-1-0.2-1.9-0.6-2.7-0.7c-3.6-0.4-7.2-0.6-10.7-0.9c-0.6-0.1-1.3-0.1-1.9-0.3c-0.6-0.3-1.4-0.8-1.4-1.3c-0.1-0.5,0.6-1.4,1.1-1.5
			c2.3-0.6,4.6-1.3,6.9-1.5c2.1-0.2,4.3,0.3,6.5,0.4c5.1,0.3,7.4-0.9,8.8-5.7c2.4-8.2,4.3-16.5,6.5-24.7c1.7-6.2,3.5-12.3,5.7-18.3
			c1.1-2.9,3.2-5.5,5.1-8.1c1.7-2.4,4.3-3.7,7.1-4.3c1.8-0.4,2.5-1.4,2.5-3.3c0-1.8,0.2-3.6,0.5-5.4c0.3-1.7,1.3-2.8,3-3.1
			c3.3-0.5,5.9-2.3,8.7-4c5.2-3.3,10.4-6.6,15.8-9.5c2.7-1.5,5.8-2.3,8.8-3.1c4.1-1.2,8.1-2.3,12.3-3.2c1.2-0.3,2.5-0.1,3.8,0.1
			c8.3,1.4,16.6,3.3,24.4,6.7c5.7,2.5,10,6.6,14.3,10.9c11,10.8,17.2,24.2,21.3,38.8c2.2,7.9,3.5,16,2.7,24.3
			c-0.8,8.7-2.8,16.8-6.9,24.8c-8.1,15.9-20.6,27.2-35.7,36.1c-7.6,4.5-15.9,7.1-24.3,9.3c-11.2,2.9-22.5,5.8-33.7,8.8
			c-1.8,0.5-3.5,1.3-5,2.3c-3.5,2.5-5.5,2.2-7.9-1.4C144.2,213.9,143.9,213.4,143.1,212.2z M186.8,130.5c-0.3,1.1-0.5,2-0.7,2.8
			c-1.4,5.3-2.9,10.5-4,15.8c-0.5,2.1-1.2,3.9-2.5,5.7c-3.9,5.4-6.5,11.2-5,18.1c0.4,1.8,0.3,3.8,0,5.7c-0.6,4.1-1,8.2,1.5,11.7
			c3.1,4.2,6.6,8,10.1,11.8c0.7,0.8,2.4,1.2,3.4,0.9c4.4-1.1,8.8-2.3,13.1-3.9c4.2-1.6,8.3-3.6,12.4-5.6c1.8-0.9,1.8-1.6,0.1-2.6
			c-1-0.6-2.1-1.1-3.2-1.7c-2.7-1.4-5-3.3-6-6.2c-1.1-3.5-3.2-6.2-6.1-8.5c-4.8-3.9-7-9.1-7.4-15.1c-0.4-5.6-1.5-11-4-16.1
			c-1.3-2.6-1.7-5.4-0.8-8.2c0.8-2.6,1.5-5.2,2.4-7.7c0.2-0.7,0.9-1.1,1.4-1.7c0.2,0.7,0.6,1.3,0.6,2c0.3,5.2,0.9,10.5,3.6,15
			c2,3.5,2.9,7,3,11c0,3.1,0.9,6,2.9,8.6c1.5,2,3,4,4.3,6.2c2,3.3,4.6,5.9,7.5,8.4c3.3,2.8,7,3.7,11.2,3.5c2.1-0.1,4.3,0.2,6.5,0.3
			c0.7,0,1.7-0.1,2.1-0.5c3.1-3.2,6.2-6.5,9.2-9.8c0.4-0.5,0.6-1.3,0.9-1.9c-0.1-0.1-0.2-0.2-0.3-0.4c-2.5,1.6-5,1.8-7.8,1
			c-1.5-0.4-3-0.7-4.5-0.9c-5.3-0.4-8.7-3.2-10.6-8.2c-1.5-3.7-3.5-7.3-6.7-9.7c-3.9-3-6.4-6.9-8.3-11.3c-0.7-1.6-1.5-3.1-2.2-4.7
			c-1.7-3.5-3.7-6.6-7.2-8.6c-0.5-0.3-1.1-1.3-1-1.8c0.1-0.6,0.8-1.3,1.4-1.6c1.9-0.8,3.5-0.1,5,1.1c2.8,2.3,5,5,6.2,8.5
			c2.2,6.7,6.2,11.9,12.1,15.6c0.5,0.3,0.9,0.7,1.4,1.1c2,1.6,3.4,3.6,4.3,6c0.5,1.3,1.6,2.5,2.8,3.2c4.5,2.7,9.8,1.9,14.7,3
			c0.2,0.1,0.5,0,0.7-0.1c3.3-1.8,6.7-3.7,8.6-7.1c3.4-6.1,3.6-13,4.1-19.8c0-0.6-0.3-1.2-0.4-1.8c-3.3,0.6-7.5,2.4-10.8,4.8
			c-3.6,2.6-6,2.5-9.7,0.2c-1.4-0.9-3.2-1.5-4.8-1.6c-2.5-0.1-4.8-0.7-6.8-2.3c-1.4-1.1-2.8-2.2-4.2-3.3c-5.3-4.2-10.4-8.9-17.6-9.6
			c-0.4,0-0.7-0.6-1.1-0.9c0.4-0.3,0.9-0.9,1.2-0.9c3,0.3,6.2,0.3,9,1.3c3.5,1.2,6.5,3.5,9.9,5.1c1.4,0.7,3.2,1.7,4.6,1.5
			c3.6-0.6,6.7,0.1,9.7,2c2.7,1.7,5.4,1.4,7.8-0.7c3.8-3.3,7.6-6.5,11.4-9.8c0.4-0.3,0.6-1.2,0.5-1.7c-1.1-4.1-2.2-8.1-3.4-12.2
			c-0.2-0.6-1.1-1.1-1.8-1.4c-1.8-0.6-3.5-0.2-4.8,1.1c-4,4.1-8.1,8.1-11.8,12.3c-2.8,3.1-6.4,4.2-10.2,2.4
			c-4.6-2.2-9.4-3.4-14.5-2.4c-0.7,0.1-1.4-0.3-2.1-0.5c0.5-0.6,0.9-1.4,1.5-1.7c4.1-1.9,8.3-3,12.9-2.4c4.2,0.5,7.9-0.8,10.9-3.7
			c1.2-1.1,2.2-2.5,3.3-3.7c3.1-3.6,6.3-7.2,9.4-10.7c0.3-0.3,0.5-0.6,0.9-0.7c1.1-0.6,1.2-1.4,0.6-2.4c-2.2-3.5-4.3-7-6.6-10.4
			c-0.9-1.3-1.9-2.8-3.8-2.5c-1.8,0.3-2.4,2-2.9,3.5c-0.4,1-0.7,2.1-0.9,3.1c-0.9,3.7-1.8,7.3-2.7,11c-0.8,3.3-2.9,5.4-6.3,5.9
			c-2.7,0.4-4.9,1.7-7,3.4c-2.4,2.1-5,4.1-7.5,6c-0.6,0.5-1.4,0.7-2,1.1c-0.2-0.1-0.3-0.3-0.5-0.4c0.3-2.4,1.3-4.5,3-6.1
			c2.6-2.3,5.3-4.6,8.3-6.5c4.6-2.9,6.9-7,6.9-12.3c0-3.2-0.3-6.4-0.5-9.6c-0.2-3.1,0-6.1,1.8-8.7c0.9-1.3,0.4-2-0.6-2.7
			c-4.3-3-9.2-4.7-14.3-5.9c-0.5-0.1-1.3,0.4-1.6,0.8c-1.5,2.8-1.1,5.5,0.8,8.1c2.4,3.3,3.9,7,3.8,11.1c0,2-0.6,4.1-0.5,6.1
			c0.4,8.3-4.2,14.7-7.9,21.5c-0.1,0.2-0.2,0.4-0.4,0.4c-0.5,0.2-1,0.3-1.5,0.5c-0.1-0.4-0.5-0.9-0.4-1.3c0.5-2,1.1-4.1,1.7-6.1
			c1.7-5,3.8-10,5-15.1c1.7-7-1.1-12.4-7-15.1c-4.4-2-5.2-3.4-4.6-8.2c0.1-1,0.4-2,0.7-3c0.4-1.2,0.5-2.2-1.1-2.7
			c-2.3-0.8-4.1-0.5-4.4,1.1c-0.4,2-1.1,4.2-0.6,6c0.9,3.3,2.4,6.4,3.9,9.5c1.4,3,2,6,1.7,9.3c-0.7,6.2-1.5,12.5-0.2,18.8
			c0.4,1.9,0.3,3.5-0.9,4.8c0.9,1.5,1.8,2.9,2.4,4.3c1.8,4.2,0.5,8.3-3.5,10.6c-1.3,0.8-2.8,1.3-4.3,1.7c-7.2,1.7-12.2,5.6-14.2,13
			c-0.7,2.7-1.7,5.4-2.6,8c-3.6,10.4-10.3,19.2-16.1,28.4c-2.7,4.3-4.9,8.6-6.8,13.2c-2.8,6.5-2.3,12.7,0.6,19
			c1.2,2.7,3.2,4.7,5.5,6.3c0.5,0.3,1.2,0.5,1.8,0.3c3.9-0.9,7.7-1.8,11.6-2.8c0.8-0.2,1.5-0.8,2.6-1.3c-1.3-1-2.2-1.9-3.2-2.5
			c-5.4-3.4-6.8-8.4-6.2-14.5c0.4-3.9,0.3-7.8,0.4-11.7c0.1-1.9-0.2-3.8,0.3-5.5c0.7-2.1,2-4.1,3.1-6.1c0.9-1.7,2.2-3.1,2.9-4.9
			c1.5-3.4,2.6-7,4.2-10.3c1.8-3.7,3.2-7.5,4-11.6c0.7-3.8,3.7-6.2,6.4-8.6C185.4,130.7,186,130.7,186.8,130.5z M105.2,166.7
			c1-0.3,1.5-0.4,1.9-0.6c4.2-1.7,8.5-3.3,12.6-5.1c2.1-0.9,4.3-1.8,6.1-3.2c3.5-2.7,6.9-5.5,10.1-8.5c5-4.7,10.5-8.7,17-11
			c4-1.4,8-2.6,12-4c3.8-1.3,7.3-3,9.7-6.2c0.9-1.2,1.6-2.7,1.7-4.1c0.2-2-0.2-4.1-0.5-6.1c-0.2-2-1.5-3.1-3.4-3.5
			c-0.7-0.1-1.4-0.3-2.1-0.4c-8-1.7-15.6-3.8-21.3-10.5c-3.3-3.9-5.4-8-6.4-12.9c-0.6-3.1-1.5-3.7-4.4-2.4c-1.2,0.5-2.5,1.3-3.3,2.3
			c-2.1,2.8-4.4,5.6-5.9,8.7c-3.7,8.1-5.6,16.8-7.2,25.5c-1.9,10-5.1,19.4-10.5,28.1c-1.9,3-3.7,6.2-5.3,9.4
			C105.8,163.4,105.7,164.9,105.2,166.7z M146.5,77.6c0.2,0,0.5,0.1,0.7,0.1c0.1,1.9,0.3,3.8,0.3,5.6c0,5.2,1.5,9.8,5.4,13.6
			c0.8,0.8,1.7,1.7,2.2,2.7c2.3,4.7,6.5,6.1,11.2,7.1c2.8,0.6,5.5,1.9,8.2,3c0.6,0.2,1.2,1.1,1.2,1.7c0.1,1.1,0.7,1.5,1.6,1.9
			c2,0.7,3.8,0.5,5.1-1.1c1.4-1.7,2.5-3.6,3.6-5.4c1.6-2.7,1.1-4.9-1.6-6.7c-2-1.3-3.5-3.1-4.1-5.4c-0.7-2.9-1.1-5.8-1.4-8.7
			c-0.2-2.3-1-4.1-3.2-5.1c-4-1.7-6.1-4.9-7.2-9c-0.4-1.6-0.9-3.2-1.4-4.8c-0.5-1.4-1.3-2-2.7-1.1c-1.5,1-3.1,1.8-4.6,2.8
			c-3.7,2.3-3.9,2.7-3.2,7c0.1,0.7,0.3,1.4,0.5,2.1c1.2,4.7,4,7.4,9,7.7c4.1,0.3,6,2.1,7.2,6.1c0.4,1.5,0.6,3.2,1.2,4.7
			c1.4,4.1,4.2,7.1,7.4,9.9c0.6,0.5,0.7,1.4,1,2.2c-0.8-0.1-1.8,0.1-2.4-0.2c-5.2-3-9.4-6.9-12-12.4c-1.5-3.3-3.9-4.7-7.6-4.7
			c-4.7,0.1-6.4-1.5-7.9-6c-1-2.8-2.2-5.5-3.3-8.2c-0.6-1.5-1.9-1.9-3.1-1c-0.8,0.6-1.8,1.7-1.8,2.6c-0.1,3.4-0.2,6.8,0.3,10.2
			c1.3,9.5,6.5,16.2,15.2,20c3.2,1.4,6.9,1.9,10.4,2.8c0.5,0.1,1,0,1.5,0c0.1-0.2,0.1-0.4,0.2-0.6c-1.1-0.5-2.2-1.2-3.3-1.6
			c-2.3-0.7-4.7-1.3-7.1-1.8c-3.3-0.7-5.6-2.6-7.4-5.4c-0.8-1.2-1.6-2.5-2.7-3.5c-5.5-5.5-6.7-12.2-5.7-19.5
			C146,78.6,146.3,78.1,146.5,77.6z M42.9,199.9c0,0.3,0.1,0.5,0.1,0.8c0.8-0.1,1.6-0.1,2.4-0.3c5.3-1,10.6-1.9,15.8-3
			c4.5-0.9,9-1.9,13.4-3.2c3.6-1,7.1-2.5,10.7-3.7c5.7-1.9,11.4-3.7,17.2-5.4c1.2-0.4,2.8-0.6,3.9-0.1c4.5,1.7,7.9,0.1,11.3-2.6
			c2.5-1.9,5.5-3.3,8.2-4.8c1.9-1.1,4.1-2,5.8-3.3c5.4-4.1,11.1-7.8,17.8-9.2c4.8-1,9-3,12.9-5.7c1.2-0.8,2.2-2.1,3.2-3.3
			c0.3-0.4,0.1-1.1,0.1-1.7c-0.5,0.2-1.1,0.2-1.5,0.5c-0.4,0.3-0.7,0.7-1,1.1c-2.6,2.8-5.7,3.6-9.3,2.2c-1.5-0.6-2.6-0.3-3.9,0.5
			c-5.1,3.3-10.3,6.6-16.2,8.3c-5.2,1.4-9.5,4.3-13.2,8.2c-1.4,1.5-3,2.9-4.8,3.8c-5.2,2.6-10.7,4-16.5,4c-1,0-2.1,0.1-3,0.5
			c-2.8,1.2-5.4,2.8-8.3,3.9c-11,4.4-22.2,7.9-33.9,9.8C50.4,197.8,46.7,198.9,42.9,199.9z M195.2,105.6c0.1-0.1,0.3-0.2,0.4-0.3
			c-4.2-6.3-3-13.3-2.9-20.2c0-1.5,0-3-0.2-4.4c-0.4-2.7-1.5-5.1-3.8-6.7c-2.7-1.9-3.8-4.6-3.8-7.8c0-2.1,0-4.2,0-6.3
			c0-1.4-0.5-2.3-2.1-1.8c-2.5,0.8-5,1.6-7.5,2.5c-1,0.3-1.4,0.9-1.2,2.1c0.6,2.9,1,5.8,1.5,8.7c0.4,2.4,1.7,3.9,4.1,4.5
			c2.4,0.5,3.5,2.2,3.9,4.4c0.2,1,0.4,2,0.4,3c0.2,6.7,1.9,13,4.7,19.1c0.2,0.5,0.6,1.1,1,1.3C191.6,104.4,193.4,105,195.2,105.6z
			 M42.9,188.1c0,0.2,0,0.3,0,0.5c0.6,0.1,1.2,0.2,1.9,0.2c7.8-0.1,15.6-0.1,23.4-0.5c9.6-0.5,18.7-2.8,27.5-6.8
			c1-0.4,2.1-0.7,3.1-0.8c3.6-0.5,7.2-0.9,10.8-1.5c4.1-0.7,7.2-3,10.1-5.8c2.4-2.3,5.1-4.4,8-6.1c2.5-1.5,5.5-2,8.2-3.3
			c4.5-2.2,9-4.6,13.4-7.1c0.4-0.2,0.9-1.2,0.8-1.5c-0.3-0.5-1-0.8-1.6-1c-0.4-0.1-0.9,0.1-1.3,0.1c-6,0.8-11.2,3.3-16.1,6.9
			c-3.1,2.3-6.4,4.3-9.9,5.7c-3.9,1.6-7.4,3.4-10.6,6.1c-3,2.5-6.4,3.8-10.3,2.6c-1.3-0.4-2.1,0.2-3,1.1c-1.2,1.2-2.6,2.6-4.1,3
			c-9.4,2.4-18.9,4.9-28.4,6.7c-4.6,0.9-9.5,0.4-14.2,0.6C48,187.6,45.4,187.9,42.9,188.1z M190.2,134.6c-0.2,0.6-0.8,1.4-0.7,2
			c0.4,2.4,0.7,4.8,1.7,7c1.9,4.4,3.2,8.8,3.3,13.6c0.1,6.8,2.6,12.3,7.7,16.7c2.5,2.1,4.1,4.8,5.4,7.8c0.8,1.8,2.2,3.4,3.8,4.6
			c1.8,1.5,4,2.6,6.2,3.5c1,0.4,2.6,0.5,3.4,0c2.8-1.8,5.4-3.9,8-6c0.4-0.3,0.8-1.2,0.7-1.4c-0.3-0.4-1-0.8-1.5-0.8
			c-0.9-0.1-1.8-0.1-2.7,0c-7.6,0.5-13.7-2.3-18.2-8.4c-2.9-3.8-5.7-7.7-8.4-11.7c-0.9-1.3-1.3-2.9-1.6-4.5
			c-0.5-2.8-0.3-5.7-1.2-8.4C194.4,143.9,192.2,139.4,190.2,134.6z M171.8,165c-2.9,2.4-5.5,5.3-5.4,9.7c0.1,2.8,0.1,5.6,0,8.5
			c0,1.8-0.1,3.6-0.4,5.3c-1,5.5,0.2,9.8,4.5,13.8c3.7,3.4,7,4.7,11.7,2.6c2.2-1,2.5-1.1,0.9-2.9c-2.8-3.4-5.7-6.6-8.3-10.1
			c-1-1.2-1.9-2.8-2.1-4.2c-0.3-3.3-0.1-6.6-0.1-9.9c0-1,0.2-1.9,0.1-2.9C172.5,171.6,172.1,168.3,171.8,165z M150.4,149.5
			c0.2,2.8,1.7,5.2,4.5,6.7c2.3,1.2,5.6,0.2,7-2c0.9-1.4,0.8-2.7-0.3-3.9c-0.6-0.7-1.4-1.1-2-1.8c-0.7-0.9-1.4-2-1.7-3.1
			c-0.3-1.3,0.2-2.5,1.6-2.9c1.4-0.4,2.3,0.4,2.8,1.6c0.6,1.5,1,3.1,1.7,4.5c0.5,1,1.4,2.6,1.9,2.5c1.2-0.2,2.7-0.9,3.3-1.9
			c1.2-2.1,2.2-4.4,2.7-6.7c0.8-3.9-1.8-6.4-5.7-5.6c-2.9,0.6-5.7,1.6-8.5,2.4C153.8,140.3,150.5,144.8,150.4,149.5z M178.4,126.2
			c0.4,0.1,0.5,0.1,0.6,0.1c0.2-0.1,0.5-0.2,0.7-0.4c2.5-3,6.1-4,9.6-5.2c2.1-0.7,4.3-1.8,6-3.2c2.1-1.7,2.5-4.1,1.5-6.7
			c-1.1-2.8-3.3-4.2-6.2-4.5c-2.7-0.2-3.8,1.8-4.7,3.8c-1.3,2.8-3.2,4.7-6.2,5.6c-0.6,0.2-1.3,1.1-1.3,1.7
			C178.3,120.4,178.4,123.3,178.4,126.2z M255.7,120.3c-0.3-0.1-0.6-0.1-0.9-0.2c-1.3,0.9-2.6,1.6-3.7,2.6c-2.1,1.8-4.1,3.9-6.2,5.7
			c-3.8,3.3-8.2,4.2-12.4,0.8c-1.1-0.9-2.9-1.4-4.3-1.3c-2.7,0.3-5.3,0.8-7.9-0.7c2.5,2.6,4.7,5.6,8.8,5.6c2.4,0,4.7,0.5,6.7,2
			c2.6,2,5.1,1.7,7.8-0.1c2.3-1.5,4.8-2.7,7.2-4c1.4-0.7,2.9-1.3,4.3-2.1c0.5-0.3,1.1-0.9,1.1-1.3C256.3,125,256,122.7,255.7,120.3z
			 M73.4,174.4c0,0.2,0,0.5,0.1,0.7c0.9,0.1,1.7,0.3,2.6,0.2c6.2-0.8,12.4-1.6,18.6-2.5c2.3-0.3,4.4-0.4,6.4,1.1
			c0.5,0.4,1.2,0.6,1.8,0.5c2.6-0.2,5.1-0.8,7-2.7c2.5-2.6,5.4-4.3,8.7-5.4c4.2-1.5,8.1-3.5,11.6-6.2c4.9-3.7,10.1-6.6,16.2-7.5
			c0.4-0.1,0.8-0.4,1.1-0.6c-0.1-0.2-0.1-0.4-0.2-0.6c-3.7,0.4-7.6-0.2-11.2,1.2c-0.4,0.2-0.8,0.5-1.1,0.8c-1.9,1.5-3.6,3.3-5.7,4.6
			c-3.1,2-6.3,4.1-9.7,5.4c-5.1,1.9-10.3,3.4-14.6,7.1c-0.4,0.3-1.6,0.3-1.9-0.1c-1-1.1-1.9-0.9-3.1-0.5c-2.4,0.8-4.8,1.8-7.3,2.2
			c-5.6,0.8-11.2,1.3-16.8,2C75.3,174,74.4,174.2,73.4,174.4z M199.4,124.6c-0.1,0.4-0.2,0.6-0.2,0.6c0.1,0.3,0.3,0.6,0.5,0.8
			c3.5,3.8,5.8,8.2,7.7,13c1.3,3.2,3,6.2,5.8,8.3c3.8,2.8,6.6,6.4,8.2,10.7c2,5.3,5.4,7.7,11.2,8.6c5.2,0.8,9.3-0.6,13.4-3.1
			c0.6-0.4,0.9-1.1,1.4-1.7c-0.1-0.2-0.3-0.3-0.4-0.5c-0.6,0.2-1.2,0.5-1.9,0.6c-1.9,0.2-3.8,0.6-5.6,0.5c-2.1-0.1-4.3-0.8-6.4-1.1
			c-4.5-0.7-8.3-2.3-10.4-6.9c-0.8-1.8-2.3-3.4-3.7-4.9c-1.2-1.3-2.7-2.3-4.2-3.3c-4.5-3.1-7.1-7.5-9.1-12.5c-1-2.6-2.8-5-4.3-7.4
			C200.9,125.6,200.1,125.2,199.4,124.6z M141.3,195.8c-3,1.1-5.6,2.6-7.5,4.9c-2.3,2.7-4.5,5.6-6.7,8.5
			c-6.6,8.5-12.3,17.6-16.8,27.5c-0.4,0.8-0.6,1.8-0.8,2.7c0.2,0.1,0.3,0.1,0.5,0.2c0.4-0.5,0.8-1,1.1-1.5c2.3-4.4,4.6-8.7,6.8-13.2
			c2.1-4.3,4.9-7.9,9.6-9.8c1.5-0.6,3.1-1.7,3.8-3.1c2.1-3.7,5-6.4,8.3-8.9C141.9,201.3,142.4,199.1,141.3,195.8z M114,194.8
			c2.5,0.2,4.6,0.4,6.6,0.4c0.7,0,1.5-0.2,2-0.7c4.9-4.2,10.8-6.4,16.4-9.1c2.9-1.4,4-4.2,2.6-7.4c-0.3,0-0.7,0-1.1,0.2
			c-4.4,1.4-8.4,3.5-12.1,6.1c-4.2,3-7.8,6.9-12.9,8.5C115,193.1,114.7,194,114,194.8z M220.5,98.3c3,0.6,5-0.6,6-3.5
			c0.8-2.4,1.3-4.9,1.9-7.4c1.1-4.5,1.1-9.5,5.4-12.7c-0.4-0.5-0.6-0.9-0.9-1.3c-0.9-1.1-1.8-2.1-2.9-3.1c-2.6-2.5-4.1-2-5,1.6
			c-0.1,0.6-0.3,1.1-0.2,1.7c0.1,3.6,0.1,7.3,0.3,10.9c0.2,4.2-0.7,8-3,11.5C221.6,96.6,221.1,97.3,220.5,98.3z M155.3,211.1
			c-4.5-3.4-6.3-8.1-7.7-13.1c-1.6-5.4,0.9-10.1,1.8-15.2c-0.6,0.5-1.2,1-1.4,1.6c-2,4.8-3.9,9.6-4.2,14.9c-0.3,5.1,0.3,10,3,14.5
			c0.8,1.3,1.8,2.2,3.3,1.2C151.7,213.9,153.3,212.6,155.3,211.1z M103.6,209.9c0.1,0.2,0.2,0.4,0.4,0.6c5.6-2.3,11.1-4.6,16.3-7.9
			c3.3-2.2,7.1-3.8,10.7-5.5c3.5-1.6,7-3.1,10.5-4.7c0.5-0.2,1-1,1-1.4c-0.3-2.3-2.6-3.5-4.8-2.7c-5.7,2.1-11,5.1-15.2,9.5
			c-3.5,3.7-7.8,6.2-12.3,8.3c-1.7,0.8-3.3,1.7-4.9,2.6C104.6,209,104.2,209.5,103.6,209.9z M64.7,210.2c0.5-0.2,0.9-0.4,1.4-0.6
			c6.6-3.3,13-6.9,19.8-9.8c4.5-1.9,9.4-2.9,14.1-4.2c1.8-0.5,3.8-0.5,5.7-1c3.1-0.8,4.8-3,5.2-6.4c-0.8-0.2-1.7-0.3-2.5-0.6
			c-2.9-1.1-5.4-0.4-7.6,1.6c-1.7,1.5-3.4,3.2-5.3,4.5c-2.2,1.5-4.4,3.2-6.9,3.9C79.7,200.2,71.8,204.5,64.7,210.2z M118.4,206
			c-3.7,1.9-7,3.5-10.1,5.3c-0.7,0.4-1.3,1.2-1.9,1.9c-1.7,1.8-3.3,3.7-5.2,5.3c-8.9,7.5-18.9,13.4-28.5,19.9
			c-0.5,0.3-0.9,0.7-1.4,1.1c0.1,0.1,0.2,0.3,0.3,0.4c1.3-0.7,2.6-1.3,3.8-2.1c4.5-3,8.9-6,13.4-9c1.4-0.9,2.9-1.7,4.5-2.2
			c3.5-1.1,6.6-2.8,9.2-5.4c3.4-3.4,7.1-6.4,11.5-8.6C116.2,211.5,117.6,209.3,118.4,206z M84,238.4c0.1,0.1,0.3,0.2,0.4,0.4
			c0.5-0.3,1.1-0.6,1.6-1c2.5-1.9,4.8-4.1,7.3-5.9c5.9-4.2,11.9-8.3,17.9-12.3c6.2-4.1,12.3-8.1,16.3-14.6c0.4-0.6,0.7-1.2,1-1.8
			c-4.3,1.5-8.1,3.4-10.1,7.6c-0.5,1.1-1.5,2-2.5,2.8c-3.6,2.8-7.3,5.4-11,8.1c-2.3,1.7-4.4,3.8-7,5.1c-4.6,2.4-8.4,5.8-12.1,9.4
			C85.3,236.8,84.7,237.6,84,238.4z M132.2,227.5c0.2,0.1,0.5,0.2,0.7,0.3c1-1.8,2.2-3.5,3.1-5.4c1-2,1.8-4.1,2.7-6.1
			c0.9-2,2.1-3.8,3.1-5.8c1.1-2.1,0.9-4.1-0.3-6.3c-4.8,2.4-7.8,5.9-8.6,11.2c-0.3,2.2-0.6,4.5-1.2,6.6
			C131,224.1,131.3,225.8,132.2,227.5z M217.5,113.5c0,0.1,0,0.3-0.1,0.4c1.6,0.6,3.2,1.2,4.8,1.9c4.2,1.9,6.5,1.5,9.6-1.9
			c2.8-3,5.5-6.1,8.2-9.1c2-2.2,4.3-4,7.2-5c0.9-0.3,2.1-0.3,1.6-1.6c-0.4-1.2-1.2-2.3-2.1-3.1c-0.2-0.2-1.7,0.6-2.3,1.3
			c-0.8,0.7-1.2,1.8-2,2.6c-2.7,2.8-5.4,5.6-8.1,8.4c-4,4.4-8.7,6.9-14.8,6.1C218.8,113.4,218.1,113.5,217.5,113.5z M171.9,62
			c-3.5,1.2-3.8,1.8-2.9,4.9c0.5,1.9,1.2,3.8,1.7,5.7c0.8,2.8,2.5,5,5.2,6.1c3.4,1.4,4.8,3.8,4.8,7.3c0,0.8,0,1.6,0.2,2.3
			c0.5,2.2,1,4.4,1.6,6.6c0.2,0,0.4-0.1,0.6-0.1c-0.3-4.3-0.6-8.7-1-13c-0.2-1.9-1.1-3.4-3-3.9c-3.8-0.9-4.9-3.6-5.4-7
			C173.2,67.9,172.6,65,171.9,62z M119.5,183.6c0.1,0.2,0.2,0.3,0.4,0.5c2.5-1.2,5-2.9,7.6-3.4c5.1-0.9,9.7-3.2,14.4-5.1
			c0.6-0.2,1.3-0.7,1.6-1.2c1.4-2.1,2.6-4.3,4-6.6c-0.3,0-0.7,0-1,0.1c-2.8,1.5-5.7,2.9-8.5,4.4c-5,2.8-9.9,5.8-14.8,8.7
			C121.9,181.9,120.7,182.8,119.5,183.6z M171.5,97c0.2-0.1,0.4-0.2,0.6-0.2c-0.5-1.9-0.9-3.9-1.5-5.8c-0.6-2-2-3-4.1-3.2
			c-1.2-0.1-2.4-0.2-3.6-0.5c-3.8-1-6-3.6-7.2-7.3c-0.7-2-1.4-4.1-2-6.1c-2,0.4-2.6,1.2-1.9,2.9c1.1,2.5,1.9,5,2.8,7.6
			c1.5,4,2.7,4.9,7,4.8c3.8-0.1,6.5,1.6,8.2,5C170.3,95.2,170.9,96.1,171.5,97z M209.3,73c-0.7-1.2-1.2-2.7-2.1-3.9
			c-1.9-2.4-2.2-5.1-1.5-8c0.7-2.7,0.4-3-2.2-3.7c-1.8-0.4-3,0-3.6,1.8c-0.3,1.2-0.8,2.3-1,3.5c-0.4,2.6,0.6,4.2,2.9,5.5
			C204.2,69.8,206.7,71.4,209.3,73z M189.7,56.7c-1.8-0.3-2.6,0.4-2.6,2.3c0,2.4-0.2,4.7-0.3,7.1c-0.1,2.6,1,4.7,3.1,6
			c2.4,1.6,3.7,3.8,4.3,6.6c0.2,1.2,0.5,2.3,0.8,3.5c1.2-2.8,0.5-5.3-0.7-7.9c-1.7-3.6-3.3-7.3-4.5-11.2
			C189.2,61.2,189.7,59,189.7,56.7z M98.1,211.7c0.1,0.1,0.3,0.2,0.4,0.3c5-4.4,9.2-9.4,12.3-15.4c1.7-3.3,3.9-6.3,5.9-9.5
			c0.3-0.5,0.7-1,1.3-2c-3.5,1.3-5.2,3.5-6.6,6.1c-1.2,2.2-2.6,4.3-3.9,6.3C104.4,202.4,101.3,207,98.1,211.7z M84.8,214.6
			c-5.9,1.3-16.5,7.8-19.6,11.8C68.1,225.9,83.4,216.7,84.8,214.6z M139.2,149.6c0.1,0.2,0.1,0.4,0.2,0.6c1.9-0.2,3.8-0.3,5.6-0.6
			c3.2-0.5,4.9-3.1,4.3-6.6C145.3,144.3,141.9,146.4,139.2,149.6z M88.5,212.2c7.1-2.1,11.1-3.7,11.8-8
			C95.4,205.3,91.7,207.8,88.5,212.2z M146.9,172.6c3.4-1.7,6.5-3.3,9.6-5c1-0.6,2.1-1.4,1.9-3C152.8,165.3,148.1,168.4,146.9,172.6
			z M108.5,225.4c-5,4.8-8.3,10.8-12.1,16.5C101.7,237.3,105.9,232,108.5,225.4z M78.4,221.7c6.8-2.5,13.5-4.6,15.4-8.9
			C91.1,212.8,82.7,217.6,78.4,221.7z M109.6,203.3c0.1,0.2,0.3,0.4,0.4,0.6c2.6-1.6,5.3-3.1,7.9-4.7c0.4-0.3,0.5-1.1,0.7-1.6
			c-0.6-0.2-1.1-0.5-1.7-0.5C113.6,197.2,110.5,199.9,109.6,203.3z M173.4,160.9c0.2-0.1,0.4-0.2,0.4-0.3c1.8-3,3.7-6,5.3-9.1
			c0.7-1.4,0.7-3.1,1-4.7c-0.2,0-0.4-0.1-0.6-0.1C177.3,149.6,173.3,158.8,173.4,160.9z M96.7,148.5c0,0.2,0.1,0.3,0.1,0.5
			c4.4,0.4,8.7,0.8,13.1,1.1c0.4,0,0.8-0.6,1.2-1c-0.4-0.3-0.8-0.8-1.2-0.8c-3.2-0.2-6.4-0.4-9.6-0.5
			C99.1,147.8,97.9,148.3,96.7,148.5z M94.3,203.7c2.6-0.8,5.3-1.5,7.8-2.4c1.5-0.5,2.1-1.7,2.2-3.4
			C100.4,199,97.1,200.9,94.3,203.7z M146.6,174c-2.2,1.7-3.8,11-2.4,13.7C145,183.2,145.8,178.6,146.6,174z M128.7,246.4
			c0.3,0,0.6,0.1,0.8,0.1c0.9-5.1,1.8-10.2,2.7-15.3c-0.2,0-0.5-0.1-0.7-0.1C130.2,236.1,129,241.2,128.7,246.4z M148.2,179.3
			c1.9-2.7,3.6-5,5.3-7.5C149.5,172,147.4,174.8,148.2,179.3z M175.9,131.3c-2.3,0.6-4.7,2.5-4.4,3.4c0.3,1,1.3,1.8,1.9,2.7
			c0.2-0.1,0.4-0.2,0.6-0.2C174.7,135.3,175.3,133.4,175.9,131.3z M90.6,161.3c0-0.2-0.1-0.4-0.1-0.7c-3.5-0.1-6.9-0.5-10.2,0.9
			c0,0.2,0,0.4,0.1,0.6C83.7,161.9,87.2,161.6,90.6,161.3z M109.6,241.4c-0.3-0.1-0.6-0.2-0.9-0.3c-1,3.6-1.9,7.2-2.9,10.8
			c0.3,0.1,0.6,0.2,0.8,0.2C107.6,248.6,108.6,245,109.6,241.4z M104,160.7c-2.3,0-4.7,0-7,0C100.1,162.5,102.8,162.4,104,160.7z
			 M122.8,203c0.1,0.2,0.2,0.4,0.3,0.6c2.2-1.1,4.5-2.2,6.7-3.4c-0.1-0.2-0.2-0.4-0.3-0.6C127.3,200.7,125,201.9,122.8,203z
			 M122.7,186.2c-0.1-0.2-0.3-0.4-0.4-0.5c-1.2,0.8-2.3,1.7-3.5,2.5c0.2,0.2,0.4,0.5,0.5,0.7C120.4,187.9,121.5,187,122.7,186.2z"/>
		<path class="st0" d="M186.8,130.5c-0.9,0.2-1.4,0.2-1.7,0.5c-2.7,2.5-5.7,4.8-6.4,8.6c-0.8,4.1-2.2,7.9-4,11.6
			c-1.6,3.3-2.7,6.9-4.2,10.3c-0.8,1.7-2,3.2-2.9,4.9c-1.1,2-2.4,3.9-3.1,6.1c-0.5,1.7-0.2,3.7-0.3,5.5c-0.1,3.9,0,7.8-0.4,11.7
			c-0.7,6.1,0.8,11,6.2,14.5c1,0.6,1.9,1.5,3.2,2.5c-1.1,0.6-1.8,1.1-2.6,1.3c-3.8,1-7.7,1.9-11.6,2.8c-0.5,0.1-1.3,0-1.8-0.3
			c-2.3-1.6-4.3-3.6-5.5-6.3c-2.9-6.3-3.3-12.5-0.6-19c1.9-4.6,4.2-8.9,6.8-13.2c5.7-9.2,12.5-17.9,16.1-28.4c0.9-2.7,1.9-5.3,2.6-8
			c2-7.4,7-11.4,14.2-13c1.5-0.3,3-0.9,4.3-1.7c4-2.3,5.3-6.4,3.5-10.6c-0.6-1.5-1.5-2.8-2.4-4.3c1.2-1.3,1.3-3,0.9-4.8
			c-1.4-6.3-0.5-12.5,0.2-18.8c0.3-3.3-0.2-6.3-1.7-9.3c-1.5-3.1-3-6.3-3.9-9.5c-0.5-1.8,0.1-4,0.6-6c0.3-1.5,2.1-1.8,4.4-1.1
			c1.6,0.5,1.5,1.5,1.1,2.7c-0.3,1-0.6,2-0.7,3c-0.6,4.8,0.3,6.3,4.6,8.2c6,2.7,8.7,8.1,7,15.1c-1.2,5.1-3.3,10.1-5,15.1
			c-0.7,2-1.2,4-1.7,6.1c-0.1,0.4,0.2,0.9,0.4,1.3c0.5-0.2,1-0.3,1.5-0.5c0.2-0.1,0.3-0.3,0.4-0.4c3.7-6.8,8.3-13.2,7.9-21.5
			c-0.1-2,0.5-4.1,0.5-6.1c0-4.1-1.5-7.8-3.8-11.1c-1.8-2.6-2.2-5.3-0.8-8.1c0.2-0.5,1.1-0.9,1.6-0.8c5.1,1.2,10,2.9,14.3,5.9
			c1,0.7,1.5,1.4,0.6,2.7c-1.8,2.6-2,5.6-1.8,8.7c0.2,3.2,0.5,6.4,0.5,9.6c0,5.3-2.3,9.4-6.9,12.3c-3,1.8-5.7,4.1-8.3,6.5
			c-1.8,1.6-2.8,3.7-3,6.1c0.2,0.1,0.3,0.3,0.5,0.4c0.7-0.4,1.4-0.6,2-1.1c2.5-2,5-4,7.5-6c2-1.7,4.3-3,7-3.4
			c3.4-0.5,5.5-2.6,6.3-5.9c0.9-3.7,1.8-7.3,2.7-11c0.3-1.1,0.6-2.1,0.9-3.1c0.6-1.5,1.1-3.2,2.9-3.5c1.9-0.3,2.9,1.1,3.8,2.5
			c2.3,3.4,4.4,6.9,6.6,10.4c0.6,1,0.6,1.8-0.6,2.4c-0.3,0.2-0.6,0.4-0.9,0.7c-3.1,3.6-6.3,7.2-9.4,10.7c-1.1,1.3-2.1,2.6-3.3,3.7
			c-3.1,2.8-6.7,4.2-10.9,3.7c-4.6-0.6-8.8,0.5-12.9,2.4c-0.6,0.3-1,1.1-1.5,1.7c0.7,0.2,1.5,0.6,2.1,0.5c5.2-1,9.9,0.2,14.5,2.4
			c3.8,1.8,7.5,0.7,10.2-2.4c3.7-4.3,7.8-8.3,11.8-12.3c1.3-1.3,3-1.7,4.8-1.1c0.7,0.2,1.6,0.8,1.8,1.4c1.3,4,2.4,8.1,3.4,12.2
			c0.1,0.5-0.1,1.4-0.5,1.7c-3.8,3.3-7.6,6.5-11.4,9.8c-2.4,2.1-5.1,2.4-7.8,0.7c-3-1.9-6.1-2.7-9.7-2c-1.4,0.3-3.2-0.7-4.6-1.5
			c-3.3-1.7-6.4-3.9-9.9-5.1c-2.8-1-6-1-9-1.3c-0.4,0-0.8,0.6-1.2,0.9c0.4,0.3,0.7,0.8,1.1,0.9c7.3,0.6,12.3,5.4,17.6,9.6
			c1.4,1.1,2.8,2.2,4.2,3.3c2,1.6,4.2,2.1,6.8,2.3c1.6,0.1,3.4,0.8,4.8,1.6c3.8,2.3,6.1,2.3,9.7-0.2c3.3-2.3,7.5-4.2,10.8-4.8
			c0.1,0.6,0.5,1.2,0.4,1.8c-0.5,6.8-0.7,13.6-4.1,19.8c-1.9,3.4-5.3,5.2-8.6,7.1c-0.2,0.1-0.5,0.2-0.7,0.1
			c-4.9-1.1-10.2-0.3-14.7-3c-1.2-0.7-2.3-2-2.8-3.2c-0.9-2.4-2.3-4.4-4.3-6c-0.5-0.4-0.9-0.8-1.4-1.1c-6-3.7-9.9-8.9-12.1-15.6
			c-1.1-3.4-3.4-6.1-6.2-8.5c-1.5-1.2-3.1-1.9-5-1.1c-0.6,0.3-1.3,1-1.4,1.6c-0.1,0.6,0.4,1.5,1,1.8c3.4,2,5.5,5.1,7.2,8.6
			c0.8,1.6,1.5,3.1,2.2,4.7c1.9,4.4,4.4,8.3,8.3,11.3c3.2,2.5,5.2,6,6.7,9.7c1.9,4.9,5.3,7.7,10.6,8.2c1.5,0.1,3.1,0.4,4.5,0.9
			c2.7,0.8,5.3,0.6,7.8-1c0.1,0.1,0.2,0.2,0.3,0.4c-0.3,0.6-0.4,1.4-0.9,1.9c-3,3.3-6.1,6.6-9.2,9.8c-0.4,0.4-1.4,0.5-2.1,0.5
			c-2.2,0-4.3-0.4-6.5-0.3c-4.2,0.2-7.9-0.7-11.2-3.5c-2.9-2.5-5.6-5.1-7.5-8.4c-1.3-2.1-2.7-4.2-4.3-6.2c-2-2.6-2.8-5.5-2.9-8.6
			c-0.1-3.9-1-7.5-3-11c-2.6-4.6-3.2-9.8-3.6-15c0-0.7-0.4-1.3-0.6-2c-0.5,0.6-1.2,1.1-1.4,1.7c-0.9,2.5-1.6,5.1-2.4,7.7
			c-0.9,2.9-0.5,5.6,0.8,8.2c2.5,5.1,3.6,10.5,4,16.1c0.4,6,2.6,11.2,7.4,15.1c2.8,2.3,4.9,4.9,6.1,8.5c0.9,3,3.3,4.8,6,6.2
			c1.1,0.6,2.2,1.1,3.2,1.7c1.7,1,1.7,1.7-0.1,2.6c-4.1,2-8.2,4-12.4,5.6c-4.3,1.6-8.7,2.8-13.1,3.9c-1,0.3-2.7-0.2-3.4-0.9
			c-3.5-3.8-7-7.7-10.1-11.8c-2.5-3.5-2.1-7.6-1.5-11.7c0.3-1.8,0.4-3.8,0-5.7c-1.5-7,1.2-12.8,5-18.1c1.3-1.8,2-3.5,2.5-5.7
			c1.2-5.3,2.7-10.5,4-15.8C186.3,132.4,186.5,131.6,186.8,130.5z"/>
		<path class="st0" d="M105.2,166.7c0.5-1.8,0.6-3.3,1.2-4.6c1.6-3.2,3.4-6.3,5.3-9.4c5.4-8.7,8.7-18.1,10.5-28.1
			c1.6-8.7,3.5-17.4,7.2-25.5c1.5-3.1,3.7-5.9,5.9-8.7c0.8-1,2.1-1.8,3.3-2.3c2.9-1.3,3.8-0.6,4.4,2.4c1,4.9,3.1,9,6.4,12.9
			c5.6,6.7,13.3,8.8,21.3,10.5c0.7,0.1,1.4,0.3,2.1,0.4c1.9,0.4,3.1,1.5,3.4,3.5c0.2,2,0.7,4.1,0.5,6.1c-0.1,1.4-0.8,3-1.7,4.1
			c-2.4,3.2-6,5-9.7,6.2c-4,1.3-8.1,2.5-12,4c-6.5,2.3-12,6.3-17,11c-3.2,3-6.6,5.9-10.1,8.5c-1.8,1.4-4,2.3-6.1,3.2
			c-4.2,1.8-8.4,3.4-12.6,5.1C106.7,166.3,106.3,166.4,105.2,166.7z M144.7,116.1C144.7,116.1,144.7,116.1,144.7,116.1
			c-1.1,0.1-2.2,0.1-3.3,0.3c-1.7,0.2-2.7,1.6-1.7,2.9c1.1,1.5,2.6,2.8,4.2,3.6c1.4,0.8,2.9-0.3,3.8-1.5c1-1.3,1.6-2.7,0.8-4.4
			c-0.7-1.5-2.1-0.8-3.2-0.9C145.3,116,145,116.1,144.7,116.1z M139.4,110.2c-0.3-0.4-0.9-1.6-1.6-1.7c-1.2-0.2-3.1-0.1-3.6,0.7
			c-1.2,1.6-1.9,3.6-2.4,5.5c-0.1,0.5,0.9,1.8,1.5,1.9C135.3,117,139.5,113,139.4,110.2z M116.8,160.2c2.3,0,4.2-1.8,4.2-3.9
			c0-1.9-2-3.9-3.8-3.9c-1.7,0-3.6,2.7-3.5,5.1C113.7,159.3,114.7,160.2,116.8,160.2z M166.9,126.3c3,0,5.1-1.8,5.2-4.1
			c0.1-2-1.5-3.3-3.4-2.5c-1.4,0.6-2.8,1.5-4.1,2.4c-1.4,1-1.2,2.6,0.3,3.4C165.6,126,166.5,126.2,166.9,126.3z M155.6,129.8
			c2.3,0.1,3.9-1.2,4-3.2c0.1-1.7-1.2-2.8-3.1-2.9c-2.3-0.1-4.5,1.6-4.5,3.5C151.9,128.9,153.1,129.7,155.6,129.8z M132.1,100
			c-0.1,2.5,1.6,3.9,3.5,2.9c2.1-1.1,3.5-2.9,3.8-5.4c0.3-2-1-3.1-3-2.7C134.2,95.3,132.3,97.6,132.1,100z M153.1,118.1
			c0,1.7,1.1,2.9,2.9,2.9c2,0.1,3.9-1.4,3.9-3.2c0-1.7-1.7-3.4-3.2-3.4C154.8,114.4,153.1,116.2,153.1,118.1z M143.7,105.2
			c-1.5,0.6-2.5,1-2,2.6c0.3,1,0.4,2.2,0.9,3.1c0.4,0.8,1.4,2.2,1.7,2.1c1.3-0.4,2.7-1.1,3.6-2.1c0.5-0.5,0.7-2.3,0.2-2.7
			C146.9,107.1,145.2,106.2,143.7,105.2z M139.8,142.8c2.4,0,4.8-2,4.7-3.7c-0.1-1.7-1.5-2.1-2.9-2.2c-2-0.1-4.1,1.8-4.1,3.8
			C137.6,142.2,138.7,142.7,139.8,142.8z M132.5,125.4c0,1.8,0.9,2.9,2.4,2.9c1.9,0,3.6-2.1,3.6-4.3c0-1.8-1.3-3.5-2.7-3.4
			C134.2,120.6,132.4,123.1,132.5,125.4z M131.5,147.5c1.9,0.1,3.9-1.6,4-3.4c0.1-1.4-0.9-2.4-2.5-2.5c-2-0.1-4.1,1.5-4.2,3.4
			C128.7,146.6,129.7,147.5,131.5,147.5z M124.4,125.3c0,2.3,1.3,3.3,2.7,2.5c1.5-0.8,3.1-3.6,3-5.3c-0.1-1.7-1.3-2.4-2.8-1.6
			C125.5,122,124.6,123.6,124.4,125.3z M144.6,126.3c-2,0-3.8,1.5-3.8,3c0,1.6,1.5,2.8,3.3,2.8c1.7,0,3.3-1.7,3.3-3.3
			C147.4,127.3,146.3,126.3,144.6,126.3z M122.6,143c-1.7,0-3.2,2.3-3.1,4.6c0,1.2,0.4,2.2,1.9,2.2c1.6,0,3.8-2.7,3.7-4.4
			C124.9,143.7,123.8,143.1,122.6,143z M150.2,137.4c1.7,0,3.6-1.5,3.7-3c0.1-1.4-1.4-2.5-3.2-2.6c-1.7,0-2.9,1.1-3,2.8
			C147.6,136.2,148.7,137.4,150.2,137.4z M123.1,153.9c0.1,1.5,1.1,2.2,2.5,2.2c1.8,0.1,3.5-1.6,3.5-3.3c0-1.5-0.8-2.4-2.3-2.4
			C125.3,150.3,123.2,152.3,123.1,153.9z M123.8,138.5c0.5,0.7,1,2,1.9,2.3c0.7,0.2,1.8-0.7,2.6-1.3c0.3-0.2,0.4-0.6,0.6-0.9
			c0.9-1.6,0.6-3.3-0.8-4c-1.1-0.6-2.7,0.1-3.5,1.5C124.3,136.7,124.2,137.4,123.8,138.5z M136.9,133.5c0-1.5-1.1-2.4-2.9-2.4
			c-1.9,0-3.1,1-3,2.7c0.1,1.7,1.3,3,2.9,2.9C135.4,136.7,136.9,135.1,136.9,133.5z M163.3,133.4c2.2,0,3.8-1.2,3.8-2.6
			c0-1.4-0.9-2.1-2.2-2.2c-1.4-0.1-3.5,1.6-3.5,2.8C161.5,132.9,162.5,133.4,163.3,133.4z"/>
		<path class="st0" d="M146.5,77.6c-0.2,0.5-0.5,1-0.6,1.6c-1,7.3,0.2,14.1,5.7,19.5c1,1,1.9,2.3,2.7,3.5c1.8,2.8,4.1,4.7,7.4,5.4
			c2.4,0.5,4.7,1.1,7.1,1.8c1.2,0.4,2.2,1.1,3.3,1.6c-0.1,0.2-0.1,0.4-0.2,0.6c-0.5,0-1,0.1-1.5,0c-3.5-0.9-7.1-1.4-10.4-2.8
			c-8.6-3.8-13.9-10.5-15.2-20c-0.4-3.3-0.4-6.8-0.3-10.2c0-0.9,1-2,1.8-2.6c1.2-0.9,2.5-0.5,3.1,1c1.1,2.7,2.3,5.4,3.3,8.2
			c1.6,4.5,3.2,6.1,7.9,6c3.7,0,6.1,1.4,7.6,4.7c2.6,5.5,6.8,9.4,12,12.4c0.6,0.4,1.6,0.2,2.4,0.2c-0.3-0.7-0.5-1.7-1-2.2
			c-3.2-2.8-6-5.8-7.4-9.9c-0.5-1.5-0.7-3.1-1.2-4.7c-1.1-4-3.1-5.8-7.2-6.1c-5-0.3-7.8-3-9-7.7c-0.2-0.7-0.3-1.4-0.5-2.1
			c-0.7-4.3-0.5-4.7,3.2-7c1.5-0.9,3.1-1.8,4.6-2.8c1.5-0.9,2.3-0.3,2.7,1.1c0.5,1.6,1,3.2,1.4,4.8c1,4.1,3.2,7.2,7.2,9
			c2.2,1,2.9,2.8,3.2,5.1c0.3,2.9,0.7,5.8,1.4,8.7c0.5,2.3,2,4.1,4.1,5.4c2.7,1.8,3.3,3.9,1.6,6.7c-1.1,1.9-2.2,3.8-3.6,5.4
			c-1.3,1.6-3.1,1.9-5.1,1.1c-0.9-0.3-1.5-0.7-1.6-1.9c0-0.6-0.7-1.5-1.2-1.7c-2.7-1.1-5.4-2.5-8.2-3c-4.7-1-8.9-2.4-11.2-7.1
			c-0.5-1-1.3-1.9-2.2-2.7c-3.9-3.7-5.3-8.3-5.4-13.6c0-1.9-0.2-3.8-0.3-5.6C146.9,77.6,146.7,77.6,146.5,77.6z"/>
		<path class="st0" d="M42.9,199.9c3.8-0.9,7.5-2.1,11.3-2.7c11.7-1.8,22.9-5.4,33.9-9.8c2.8-1.1,5.5-2.7,8.3-3.9
			c0.9-0.4,2-0.5,3-0.5c5.8,0.1,11.3-1.4,16.5-4c1.8-0.9,3.4-2.3,4.8-3.8c3.7-3.9,8-6.8,13.2-8.2c6-1.7,11.1-5,16.2-8.3
			c1.3-0.8,2.4-1.1,3.9-0.5c3.5,1.4,6.7,0.6,9.3-2.2c0.3-0.4,0.6-0.9,1-1.1c0.4-0.3,1-0.4,1.5-0.5c0,0.6,0.2,1.3-0.1,1.7
			c-0.9,1.2-1.9,2.4-3.2,3.3c-3.9,2.7-8.1,4.7-12.9,5.7c-6.7,1.4-12.4,5.1-17.8,9.2c-1.8,1.3-3.9,2.2-5.8,3.3
			c-2.8,1.6-5.7,2.9-8.2,4.8c-3.5,2.7-6.9,4.3-11.3,2.6c-1.1-0.4-2.7-0.2-3.9,0.1c-5.8,1.7-11.5,3.5-17.2,5.4
			c-3.6,1.2-7.1,2.6-10.7,3.7c-4.4,1.2-8.9,2.2-13.4,3.2c-5.3,1.1-10.6,2-15.8,3c-0.8,0.1-1.6,0.2-2.4,0.3
			C43,200.4,43,200.1,42.9,199.9z"/>
		<path class="st0" d="M195.2,105.6c-1.8-0.6-3.6-1.2-5.4-1.9c-0.4-0.2-0.8-0.8-1-1.3c-2.8-6.1-4.5-12.4-4.7-19.1c0-1-0.2-2-0.4-3
			c-0.4-2.3-1.6-3.9-3.9-4.4c-2.4-0.6-3.7-2.1-4.1-4.5c-0.5-2.9-1-5.8-1.5-8.7c-0.2-1.1,0.2-1.7,1.2-2.1c2.5-0.8,5-1.6,7.5-2.5
			c1.6-0.5,2.1,0.4,2.1,1.8c0,2.1,0,4.2,0,6.3c0,3.2,1.1,5.9,3.8,7.8c2.3,1.6,3.4,4,3.8,6.7c0.2,1.5,0.2,2.9,0.2,4.4
			c-0.1,6.9-1.3,13.9,2.9,20.2C195.4,105.4,195.3,105.5,195.2,105.6z"/>
		<path class="st0" d="M42.9,188.1c2.6-0.2,5.2-0.6,7.7-0.7c4.7-0.2,9.6,0.3,14.2-0.6c9.5-1.8,19-4.3,28.4-6.7
			c1.5-0.4,2.9-1.8,4.1-3c0.9-0.9,1.7-1.5,3-1.1c4,1.2,7.4-0.1,10.3-2.6c3.2-2.7,6.7-4.6,10.6-6.1c3.5-1.4,6.9-3.5,9.9-5.7
			c4.9-3.6,10.1-6.1,16.1-6.9c0.4-0.1,0.9-0.3,1.3-0.1c0.6,0.2,1.3,0.5,1.6,1c0.2,0.3-0.3,1.3-0.8,1.5c-4.4,2.4-8.8,4.9-13.4,7.1
			c-2.6,1.3-5.7,1.8-8.2,3.3c-2.9,1.7-5.7,3.8-8,6.1c-2.9,2.9-6.1,5.2-10.1,5.8c-3.6,0.6-7.2,1-10.8,1.5c-1.1,0.2-2.2,0.4-3.1,0.8
			c-8.7,4-17.9,6.3-27.5,6.8c-7.8,0.4-15.6,0.4-23.4,0.5c-0.6,0-1.2-0.1-1.9-0.2C42.9,188.5,42.9,188.3,42.9,188.1z"/>
		<path class="st0" d="M190.2,134.6c2,4.8,4.2,9.3,5.8,14.1c0.9,2.6,0.7,5.6,1.2,8.4c0.3,1.5,0.7,3.2,1.6,4.5
			c2.7,4,5.5,7.9,8.4,11.7c4.5,6,10.6,8.9,18.2,8.4c0.9-0.1,1.8-0.1,2.7,0c0.6,0.1,1.2,0.4,1.5,0.8c0.2,0.2-0.3,1.1-0.7,1.4
			c-2.6,2.1-5.2,4.2-8,6c-0.8,0.5-2.4,0.4-3.4,0c-2.2-0.9-4.3-2.1-6.2-3.5c-1.5-1.2-3-2.9-3.8-4.6c-1.3-3-2.9-5.7-5.4-7.8
			c-5.2-4.4-7.7-9.9-7.7-16.7c-0.1-4.7-1.4-9.2-3.3-13.6c-0.9-2.2-1.3-4.6-1.7-7C189.4,136,190,135.2,190.2,134.6z"/>
		<path class="st0" d="M171.8,165c0.3,3.3,0.7,6.6,1,9.9c0.1,0.9-0.1,1.9-0.1,2.9c0,3.3-0.2,6.7,0.1,9.9c0.1,1.5,1.1,3,2.1,4.2
			c2.7,3.4,5.6,6.7,8.3,10.1c1.5,1.8,1.2,1.9-0.9,2.9c-4.7,2.1-8,0.8-11.7-2.6c-4.3-4-5.5-8.3-4.5-13.8c0.3-1.7,0.4-3.6,0.4-5.3
			c0-2.8,0-5.6,0-8.5C166.3,170.2,168.9,167.4,171.8,165z"/>
		<path class="st0" d="M150.4,149.5c0-4.6,3.3-9.1,7.3-10.3c2.8-0.8,5.6-1.8,8.5-2.4c3.9-0.8,6.5,1.7,5.7,5.6
			c-0.5,2.3-1.5,4.7-2.7,6.7c-0.6,1-2.1,1.8-3.3,1.9c-0.5,0.1-1.4-1.5-1.9-2.5c-0.7-1.4-1.1-3-1.7-4.5c-0.5-1.3-1.4-2.1-2.8-1.6
			c-1.4,0.4-1.9,1.7-1.6,2.9c0.3,1.1,1,2.1,1.7,3.1c0.5,0.7,1.4,1.2,2,1.8c1,1.2,1.1,2.5,0.3,3.9c-1.4,2.2-4.7,3.2-7,2
			C152.1,154.6,150.6,152.2,150.4,149.5z"/>
		<path class="st0" d="M178.4,126.2c0-2.9-0.1-5.8,0.1-8.7c0-0.6,0.7-1.6,1.3-1.7c3-0.9,4.9-2.8,6.2-5.6c0.9-2,2.1-4,4.7-3.8
			c2.9,0.3,5.1,1.7,6.2,4.5c1,2.5,0.6,5-1.5,6.7c-1.8,1.4-3.9,2.5-6,3.2c-3.6,1.2-7.1,2.2-9.6,5.2c-0.2,0.2-0.4,0.3-0.7,0.4
			C178.9,126.3,178.8,126.3,178.4,126.2z"/>
		<path class="st0" d="M255.7,120.3c0.2,2.4,0.5,4.7,0.6,7.1c0,0.4-0.6,1.1-1.1,1.3c-1.4,0.8-2.9,1.4-4.3,2.1
			c-2.4,1.3-4.9,2.5-7.2,4c-2.7,1.7-5.1,2.1-7.8,0.1c-2-1.5-4.3-2-6.7-2c-4.1,0-6.3-3-8.8-5.6c2.6,1.5,5.2,1,7.9,0.7
			c1.4-0.2,3.2,0.4,4.3,1.3c4.2,3.4,8.6,2.5,12.4-0.8c2.1-1.9,4.1-3.9,6.2-5.7c1.1-1,2.5-1.7,3.7-2.6
			C255.1,120.2,255.4,120.2,255.7,120.3z"/>
		<path class="st0" d="M73.4,174.4c0.9-0.2,1.8-0.4,2.7-0.5c5.6-0.6,11.2-1.1,16.8-2c2.5-0.4,4.9-1.3,7.3-2.2
			c1.2-0.4,2.1-0.7,3.1,0.5c0.3,0.3,1.5,0.4,1.9,0.1c4.2-3.7,9.4-5.2,14.6-7.1c3.4-1.3,6.6-3.4,9.7-5.4c2-1.3,3.8-3.1,5.7-4.6
			c0.3-0.3,0.7-0.6,1.1-0.8c3.7-1.4,7.5-0.9,11.2-1.2c0.1,0.2,0.1,0.4,0.2,0.6c-0.4,0.2-0.7,0.6-1.1,0.6c-6.1,0.9-11.4,3.8-16.2,7.5
			c-3.6,2.7-7.4,4.8-11.6,6.2c-3.3,1.2-6.3,2.9-8.7,5.4c-1.9,2-4.4,2.5-7,2.7c-0.6,0.1-1.3-0.2-1.8-0.5c-2-1.5-4.1-1.5-6.4-1.1
			c-6.2,0.9-12.4,1.7-18.6,2.5c-0.8,0.1-1.7-0.1-2.6-0.2C73.5,174.8,73.5,174.6,73.4,174.4z"/>
		<path class="st0" d="M199.4,124.6c0.7,0.6,1.5,0.9,1.9,1.5c1.5,2.4,3.3,4.8,4.3,7.4c2,5,4.6,9.4,9.1,12.5c1.5,1,3,2.1,4.2,3.3
			c1.4,1.5,2.9,3.1,3.7,4.9c2.1,4.5,5.8,6.2,10.4,6.9c2.1,0.3,4.3,1,6.4,1.1c1.9,0.1,3.8-0.2,5.6-0.5c0.6-0.1,1.3-0.4,1.9-0.6
			c0.1,0.2,0.3,0.3,0.4,0.5c-0.5,0.6-0.8,1.3-1.4,1.7c-4.1,2.5-8.2,3.9-13.4,3.1c-5.8-0.9-9.2-3.2-11.2-8.6
			c-1.6-4.3-4.4-7.9-8.2-10.7c-2.8-2.1-4.5-5.1-5.8-8.3c-1.9-4.7-4.2-9.2-7.7-13c-0.2-0.2-0.3-0.5-0.5-0.8
			C199.2,125.2,199.3,125.1,199.4,124.6z"/>
		<path class="st0" d="M141.3,195.8c1.1,3.3,0.7,5.5-1.7,7.3c-3.3,2.5-6.3,5.2-8.3,8.9c-0.7,1.3-2.3,2.5-3.8,3.1
			c-4.7,1.9-7.4,5.5-9.6,9.8c-2.2,4.4-4.5,8.8-6.8,13.2c-0.3,0.5-0.7,1-1.1,1.5c-0.2-0.1-0.3-0.1-0.5-0.2c0.3-0.9,0.5-1.8,0.8-2.7
			c4.4-9.9,10.1-19,16.8-27.5c2.2-2.8,4.3-5.7,6.7-8.5C135.7,198.4,138.3,196.9,141.3,195.8z"/>
		<path class="st0" d="M114,194.8c0.6-0.8,0.9-1.7,1.5-1.9c5.1-1.6,8.7-5.6,12.9-8.5c3.8-2.6,7.8-4.7,12.1-6.1
			c0.4-0.1,0.7-0.1,1.1-0.2c1.3,3.2,0.3,6-2.6,7.4c-5.7,2.7-11.6,4.9-16.4,9.1c-0.5,0.4-1.3,0.7-2,0.7
			C118.6,195.2,116.6,195,114,194.8z"/>
		<path class="st0" d="M220.5,98.3c0.6-0.9,1.1-1.6,1.6-2.4c2.4-3.5,3.3-7.3,3-11.5c-0.2-3.6-0.2-7.3-0.3-10.9
			c0-0.6,0.1-1.2,0.2-1.7c0.9-3.6,2.4-4.1,5-1.6c1,1,1.9,2.1,2.9,3.1c0.3,0.3,0.5,0.7,0.9,1.3c-4.3,3.2-4.3,8.2-5.4,12.7
			c-0.6,2.5-1.1,5-1.9,7.4C225.5,97.7,223.5,98.9,220.5,98.3z"/>
		<path class="st0" d="M155.3,211.1c-2,1.5-3.6,2.7-5.3,3.8c-1.5,1-2.5,0.1-3.3-1.2c-2.7-4.5-3.3-9.4-3-14.5
			c0.3-5.3,2.2-10.1,4.2-14.9c0.3-0.6,0.8-1.2,1.4-1.6c-0.9,5.1-3.4,9.8-1.8,15.2C149,203,150.8,207.7,155.3,211.1z"/>
		<path class="st0" d="M103.6,209.9c0.5-0.4,1-0.9,1.6-1.2c1.6-0.9,3.2-1.8,4.9-2.6c4.5-2.1,8.8-4.6,12.3-8.3
			c4.2-4.4,9.5-7.4,15.2-9.5c2.2-0.8,4.4,0.4,4.8,2.7c0.1,0.4-0.5,1.2-1,1.4c-3.5,1.6-7.1,3-10.5,4.7c-3.6,1.7-7.3,3.3-10.7,5.5
			c-5.1,3.3-10.7,5.7-16.3,7.9C103.9,210.3,103.8,210.1,103.6,209.9z"/>
		<path class="st0" d="M64.7,210.2c7.1-5.7,15-10,23.8-12.6c2.5-0.7,4.7-2.4,6.9-3.9c1.9-1.3,3.5-3,5.3-4.5c2.2-2,4.7-2.7,7.6-1.6
			c0.8,0.3,1.7,0.4,2.5,0.6c-0.4,3.5-2.1,5.6-5.2,6.4c-1.8,0.5-3.8,0.5-5.7,1c-4.7,1.3-9.6,2.3-14.1,4.2c-6.7,2.9-13.2,6.5-19.8,9.8
			C65.6,209.8,65.2,210,64.7,210.2z"/>
		<path class="st0" d="M118.4,206c-0.8,3.2-2.2,5.4-4.5,6.7c-4.3,2.2-8,5.2-11.5,8.6c-2.6,2.6-5.7,4.3-9.2,5.4
			c-1.6,0.5-3.1,1.3-4.5,2.2c-4.5,2.9-8.9,6-13.4,9c-1.2,0.8-2.5,1.4-3.8,2.1c-0.1-0.1-0.2-0.3-0.3-0.4c0.5-0.4,0.9-0.8,1.4-1.1
			c9.6-6.5,19.6-12.5,28.5-19.9c1.9-1.6,3.5-3.5,5.2-5.3c0.6-0.6,1.1-1.5,1.9-1.9C111.4,209.6,114.7,207.9,118.4,206z"/>
		<path class="st0" d="M84,238.4c0.7-0.7,1.3-1.5,2-2.2c3.7-3.6,7.5-6.9,12.1-9.4c2.5-1.3,4.6-3.4,7-5.1c3.7-2.7,7.3-5.3,11-8.1
			c1-0.8,2-1.7,2.5-2.8c2-4.2,5.8-6.1,10.1-7.6c-0.3,0.6-0.7,1.2-1,1.8c-4,6.5-10.2,10.5-16.3,14.6c-6,4-12,8.1-17.9,12.3
			c-2.6,1.8-4.9,3.9-7.3,5.9c-0.5,0.4-1.1,0.6-1.6,1C84.3,238.6,84.1,238.5,84,238.4z"/>
		<path class="st0" d="M132.2,227.5c-0.9-1.7-1.2-3.4-0.6-5.5c0.7-2.1,0.9-4.4,1.2-6.6c0.8-5.3,3.8-8.8,8.6-11.2
			c1.2,2.1,1.4,4.2,0.3,6.3c-1,1.9-2.1,3.8-3.1,5.8c-1,2-1.7,4.1-2.7,6.1c-0.9,1.8-2.1,3.6-3.1,5.4
			C132.7,227.7,132.5,227.6,132.2,227.5z"/>
		<path class="st0" d="M217.5,113.5c0.7,0,1.4-0.1,2,0c6.1,0.8,10.8-1.7,14.8-6.1c2.6-2.9,5.4-5.6,8.1-8.4c0.7-0.8,1.2-1.8,2-2.6
			c0.7-0.6,2.1-1.5,2.3-1.3c0.9,0.8,1.7,2,2.1,3.1c0.5,1.2-0.7,1.3-1.6,1.6c-2.9,0.9-5.2,2.7-7.2,5c-2.7,3.1-5.4,6.1-8.2,9.1
			c-3.1,3.4-5.4,3.8-9.6,1.9c-1.6-0.7-3.2-1.3-4.8-1.9C217.4,113.8,217.4,113.6,217.5,113.5z"/>
		<path class="st0" d="M171.9,62c0.6,3,1.3,5.9,1.7,8.8c0.5,3.4,1.7,6.1,5.4,7c1.8,0.5,2.8,2,3,3.9c0.4,4.3,0.7,8.7,1,13
			c-0.2,0-0.4,0.1-0.6,0.1c-0.5-2.2-1.1-4.4-1.6-6.6c-0.2-0.7-0.2-1.5-0.2-2.3c0-3.5-1.4-6-4.8-7.3c-2.7-1.1-4.4-3.2-5.2-6.1
			c-0.6-1.9-1.2-3.8-1.7-5.7C168.2,63.8,168.5,63.2,171.9,62z"/>
		<path class="st0" d="M119.5,183.6c1.2-0.8,2.4-1.8,3.7-2.5c4.9-2.9,9.9-5.9,14.8-8.7c2.8-1.6,5.6-3,8.5-4.4c0.3-0.2,0.7-0.1,1-0.1
			c-1.3,2.2-2.6,4.4-4,6.6c-0.3,0.5-1,1-1.6,1.2c-4.7,1.9-9.3,4.2-14.4,5.1c-2.7,0.5-5.1,2.2-7.6,3.4
			C119.7,183.9,119.6,183.8,119.5,183.6z"/>
		<path class="st0" d="M171.5,97c-0.6-0.9-1.3-1.8-1.8-2.8c-1.7-3.3-4.3-5-8.2-5c-4.3,0.1-5.5-0.8-7-4.8c-0.9-2.5-1.8-5.1-2.8-7.6
			c-0.7-1.7-0.2-2.5,1.9-2.9c0.7,2,1.4,4,2,6.1c1.2,3.7,3.4,6.3,7.2,7.3c1.2,0.3,2.4,0.4,3.6,0.5c2.1,0.2,3.5,1.3,4.1,3.2
			c0.6,1.9,1,3.8,1.5,5.8C171.9,96.8,171.7,96.9,171.5,97z"/>
		<path class="st0" d="M209.3,73c-2.6-1.6-5.1-3.2-7.7-4.7c-2.3-1.3-3.3-3-2.9-5.5c0.2-1.2,0.7-2.3,1-3.5c0.6-1.9,1.8-2.3,3.6-1.8
			c2.6,0.7,2.9,1,2.2,3.7c-0.7,2.9-0.3,5.5,1.5,8C208,70.3,208.6,71.8,209.3,73z"/>
		<path class="st0" d="M189.7,56.7c0,2.3-0.5,4.5,0.1,6.4c1.2,3.8,2.8,7.5,4.5,11.2c1.2,2.6,1.9,5.1,0.7,7.9
			c-0.3-1.2-0.5-2.3-0.8-3.5c-0.6-2.7-1.8-5-4.3-6.6c-2.1-1.4-3.2-3.4-3.1-6c0.1-2.4,0.3-4.7,0.3-7.1
			C187,57.2,187.8,56.4,189.7,56.7z"/>
		<path class="st0" d="M98.1,211.7c3.1-4.7,6.3-9.3,9.4-14c1.4-2.1,2.8-4.1,3.9-6.3c1.4-2.7,3.1-4.9,6.6-6.1c-0.7,1-1,1.5-1.3,2
			c-2,3.1-4.2,6.2-5.9,9.5c-3.1,6-7.3,10.9-12.3,15.4C98.4,211.9,98.3,211.8,98.1,211.7z"/>
		<path class="st0" d="M84.8,214.6c-1.4,2.1-16.7,11.3-19.6,11.8C68.4,222.3,79,215.9,84.8,214.6z"/>
		<path class="st0" d="M139.2,149.6c2.7-3.1,6.1-5.3,10-6.6c0.7,3.5-1,6.1-4.3,6.6c-1.9,0.3-3.7,0.4-5.6,0.6
			C139.3,149.9,139.3,149.8,139.2,149.6z"/>
		<path class="st0" d="M88.5,212.2c3.2-4.3,6.9-6.9,11.8-8C99.6,208.4,95.6,210.1,88.5,212.2z"/>
		<path class="st0" d="M146.9,172.6c1.2-4.2,5.9-7.4,11.4-8c0.2,1.5-0.9,2.4-1.9,3C153.4,169.4,150.2,170.9,146.9,172.6z"/>
		<path class="st0" d="M108.5,225.4c-2.6,6.5-6.8,11.9-12.1,16.5C100.2,236.2,103.5,230.2,108.5,225.4z"/>
		<path class="st0" d="M78.4,221.7c4.3-4.2,12.7-8.9,15.4-8.9C91.9,217.2,85.2,219.3,78.4,221.7z"/>
		<path class="st0" d="M109.6,203.3c0.9-3.4,4-6.1,7.4-6.2c0.6,0,1.1,0.3,1.7,0.5c-0.2,0.6-0.3,1.3-0.7,1.6
			c-2.6,1.6-5.3,3.1-7.9,4.7C109.9,203.8,109.7,203.5,109.6,203.3z"/>
		<path class="st0" d="M173.4,160.9c-0.1-2.2,3.9-11.3,6.1-14.2c0.2,0,0.4,0.1,0.6,0.1c-0.3,1.6-0.3,3.3-1,4.7
			c-1.6,3.1-3.5,6.1-5.3,9.1C173.8,160.7,173.6,160.8,173.4,160.9z"/>
		<path class="st0" d="M96.7,148.5c1.2-0.2,2.4-0.7,3.5-0.7c3.2,0,6.4,0.3,9.6,0.5c0.4,0,0.8,0.5,1.2,0.8c-0.4,0.3-0.8,1-1.2,1
			c-4.4-0.3-8.7-0.7-13.1-1.1C96.7,148.9,96.7,148.7,96.7,148.5z"/>
		<path class="st0" d="M94.3,203.7c2.8-2.8,6.1-4.7,10.1-5.8c-0.1,1.7-0.8,2.9-2.2,3.4C99.6,202.2,96.9,202.9,94.3,203.7z"/>
		<path class="st0" d="M146.6,174c-0.8,4.6-1.6,9.1-2.4,13.7C142.7,185.1,144.4,175.7,146.6,174z"/>
		<path class="st0" d="M128.7,246.4c0.3-5.2,1.6-10.2,2.9-15.3c0.2,0,0.5,0.1,0.7,0.1c-0.9,5.1-1.8,10.2-2.7,15.3
			C129.2,246.5,129,246.4,128.7,246.4z"/>
		<path class="st0" d="M148.2,179.3c-0.8-4.4,1.3-7.2,5.3-7.5C151.7,174.2,150.1,176.5,148.2,179.3z"/>
		<path class="st0" d="M175.9,131.3c-0.7,2.1-1.2,4-1.8,5.9c-0.2,0.1-0.4,0.2-0.6,0.2c-0.7-0.9-1.6-1.7-1.9-2.7
			C171.2,133.8,173.6,132,175.9,131.3z"/>
		<path class="st0" d="M90.6,161.3c-3.4,0.3-6.9,0.5-10.3,0.8c0-0.2,0-0.4-0.1-0.6c3.3-1.4,6.8-1,10.2-0.9
			C90.5,160.9,90.5,161.1,90.6,161.3z"/>
		<path class="st0" d="M109.6,241.4c-1,3.6-2,7.2-3,10.8c-0.3-0.1-0.6-0.2-0.8-0.2c1-3.6,1.9-7.2,2.9-10.8
			C109,241.2,109.3,241.3,109.6,241.4z"/>
		<path class="st0" d="M104,160.7c-1.2,1.7-3.9,1.8-7,0C99.3,160.7,101.6,160.7,104,160.7z"/>
		<path class="st0" d="M122.8,203c2.2-1.1,4.5-2.2,6.7-3.4c0.1,0.2,0.2,0.4,0.3,0.6c-2.2,1.1-4.5,2.2-6.7,3.4
			C123,203.4,122.9,203.2,122.8,203z"/>
		<path class="st0" d="M122.7,186.2c-1.1,0.9-2.2,1.8-3.4,2.7c-0.2-0.2-0.4-0.5-0.5-0.7c1.2-0.8,2.3-1.7,3.5-2.5
			C122.4,185.8,122.5,186,122.7,186.2z"/>
		<path d="M144.7,116.1c0.3,0,0.5,0,0.8,0c1.1,0.1,2.5-0.6,3.2,0.9c0.8,1.7,0.2,3.1-0.8,4.4c-1,1.2-2.4,2.2-3.8,1.5
			c-1.6-0.9-3.1-2.2-4.2-3.6c-1-1.3-0.1-2.7,1.7-2.9C142.6,116.2,143.7,116.2,144.7,116.1C144.7,116.1,144.7,116.1,144.7,116.1z
			 M142.2,118.2c-0.3,0.4-0.5,0.8-0.8,1.3c0.9,0.5,1.7,1.1,2.6,1.5c1.2,0.6,2.2,0,2.5-1.1c0.1-0.4-0.7-1.6-1.3-1.7
			C144.3,117.9,143.2,118.2,142.2,118.2z"/>
		<path d="M139.4,110.2c0,2.8-4.1,6.8-6.1,6.4c-0.6-0.1-1.6-1.4-1.5-1.9c0.6-1.9,1.2-3.9,2.4-5.5c0.6-0.8,2.4-0.8,3.6-0.7
			C138.6,108.6,139.1,109.9,139.4,110.2z M137.4,111.1c-2.8,0.1-3.7,1.4-2.7,3.5C135.6,113.5,136.4,112.5,137.4,111.1z"/>
		<path d="M116.8,160.2c-2.1,0-3.1-0.9-3.1-2.7c0-2.4,1.8-5.1,3.5-5.1c1.8,0,3.8,2.1,3.8,3.9C121,158.4,119.1,160.2,116.8,160.2z
			 M119.4,156.5c-0.9-0.5-1.5-1.1-1.9-1c-0.6,0.2-1.1,0.8-1.4,1.4c-0.1,0.2,0.8,1.2,1.1,1.1C117.8,157.8,118.4,157.2,119.4,156.5z"
			/>
		<path d="M166.9,126.3c-0.4-0.1-1.3-0.3-2-0.8c-1.5-0.9-1.6-2.4-0.3-3.4c1.3-0.9,2.7-1.8,4.1-2.4c1.9-0.8,3.5,0.4,3.4,2.5
			C172,124.5,169.9,126.3,166.9,126.3z M166.9,122.8c0.1,0.4,0.1,0.7,0.2,1.1c0.8-0.2,1.6-0.4,2.3-0.7c0.1-0.1,0-0.8,0-1.2
			C168.6,122.4,167.7,122.6,166.9,122.8z"/>
		<path d="M132.1,100c0.1-2.5,2.1-4.8,4.3-5.2c2-0.4,3.3,0.7,3,2.7c-0.3,2.5-1.7,4.2-3.8,5.4C133.7,104,132,102.5,132.1,100z
			 M134.1,99.7c0.2,0.3,0.6,0.7,1,1.1c0.8-0.9,1.7-1.7,2.4-2.7c0.1-0.1-0.6-1.1-1-1.2C134.9,97,134.5,98.2,134.1,99.7z"/>
		<path d="M143.7,105.2c1.5,1,3.1,1.8,4.4,3.1c0.4,0.4,0.3,2.2-0.2,2.7c-0.9,1-2.3,1.7-3.6,2.1c-0.3,0.1-1.3-1.3-1.7-2.1
			c-0.5-1-0.5-2.1-0.9-3.1C141.2,106.2,142.2,105.8,143.7,105.2z M144.1,108.2c0.4,1.1,0.6,1.9,0.9,2.7c0.4-0.2,1.1-0.4,1.2-0.7
			C146.5,109.1,146,108.4,144.1,108.2z"/>
		<path d="M132.5,125.4c0-2.3,1.7-4.7,3.3-4.8c1.4-0.1,2.7,1.6,2.7,3.4c0,2.2-1.8,4.2-3.6,4.3C133.4,128.3,132.5,127.2,132.5,125.4z
			 M135.6,123.1c-0.6,0.8-1.1,1.2-1.1,1.7c0,0.4,0.6,0.8,0.9,1.2c0.4-0.4,1-0.8,1.1-1.2C136.6,124.4,136.1,123.9,135.6,123.1z"/>
		<path d="M136.9,133.5c0,1.6-1.4,3.1-3,3.2c-1.6,0.1-2.9-1.2-2.9-2.9c-0.1-1.6,1.1-2.7,3-2.7C135.8,131.2,136.9,132.1,136.9,133.5z
			"/>
		<path d="M163.3,133.4c-0.8,0-1.8-0.5-1.9-1.9c-0.1-1.1,2-2.9,3.5-2.8c1.3,0.1,2.2,0.8,2.2,2.2
			C167.1,132.2,165.5,133.4,163.3,133.4z"/>
		<path class="st0" d="M142.2,118.2c1-0.1,2.1-0.3,3.1-0.1c0.6,0.2,1.4,1.3,1.3,1.7c-0.3,1.1-1.3,1.7-2.5,1.1
			c-0.9-0.4-1.8-1-2.6-1.5C141.7,119.1,141.9,118.6,142.2,118.2z"/>
		<path class="st0" d="M137.4,111.1c-1,1.4-1.8,2.4-2.7,3.5C133.7,112.5,134.6,111.2,137.4,111.1z"/>
		<path class="st0" d="M119.4,156.5c-1,0.7-1.6,1.3-2.3,1.5c-0.2,0.1-1.1-1-1.1-1.1c0.3-0.6,0.9-1.2,1.4-1.4
			C117.9,155.4,118.5,156,119.4,156.5z"/>
		<path class="st0" d="M166.9,122.8c0.8-0.2,1.7-0.5,2.5-0.7c0,0.4,0.2,1.1,0,1.2c-0.7,0.3-1.5,0.5-2.3,0.7
			C167,123.6,167,123.2,166.9,122.8z"/>
		<path class="st0" d="M134.1,99.7c0.4-1.6,0.8-2.8,2.3-2.7c0.4,0,1.1,1.1,1,1.2c-0.7,1-1.6,1.8-2.4,2.7
			C134.7,100.4,134.4,100,134.1,99.7z"/>
		<path class="st0" d="M144.1,108.2c1.9,0.3,2.4,0.9,2.1,2.1c-0.1,0.3-0.8,0.5-1.2,0.7C144.7,110.1,144.5,109.3,144.1,108.2z"/>
		<path class="st0" d="M135.6,123.1c0.5,0.8,1,1.3,0.9,1.6c-0.1,0.5-0.7,0.8-1.1,1.2c-0.3-0.4-0.9-0.8-0.9-1.2
			C134.5,124.3,135.1,123.9,135.6,123.1z"/>
	</g>
</g>
</svg>
